<svg xmlns="http://www.w3.org/2000/svg" viewBox="0 0 500 500"><g id="freepik--background-complete--inject-1"><rect y="382.4" width="500" height="0.25" style="fill:#ebebeb"></rect><rect x="416.78" y="398.49" width="33.12" height="0.25" style="fill:#ebebeb"></rect><rect x="322.53" y="401.21" width="8.69" height="0.25" style="fill:#ebebeb"></rect><rect x="396.59" y="389.21" width="19.19" height="0.25" style="fill:#ebebeb"></rect><rect x="52.46" y="390.89" width="43.19" height="0.25" style="fill:#ebebeb"></rect><rect x="104.56" y="390.89" width="6.33" height="0.25" style="fill:#ebebeb"></rect><rect x="131.47" y="395.11" width="93.68" height="0.25" style="fill:#ebebeb"></rect><path d="M237,337.8H43.91a5.71,5.71,0,0,1-5.7-5.71V60.66A5.71,5.71,0,0,1,43.91,55H237a5.71,5.71,0,0,1,5.71,5.71V332.09A5.71,5.71,0,0,1,237,337.8ZM43.91,55.2a5.46,5.46,0,0,0-5.45,5.46V332.09a5.46,5.46,0,0,0,5.45,5.46H237a5.47,5.47,0,0,0,5.46-5.46V60.66A5.47,5.47,0,0,0,237,55.2Z" style="fill:#ebebeb"></path><path d="M453.31,337.8H260.21a5.72,5.72,0,0,1-5.71-5.71V60.66A5.72,5.72,0,0,1,260.21,55h193.1A5.71,5.71,0,0,1,459,60.66V332.09A5.71,5.71,0,0,1,453.31,337.8ZM260.21,55.2a5.47,5.47,0,0,0-5.46,5.46V332.09a5.47,5.47,0,0,0,5.46,5.46h193.1a5.47,5.47,0,0,0,5.46-5.46V60.66a5.47,5.47,0,0,0-5.46-5.46Z" style="fill:#ebebeb"></path><path d="M349.37,209s6.33-11.13-3.56-16.84-17-5.26-12.66-15.57,4.36-11-13-23.91-21.48-5.79-18.46-21.61-19.91-11.87-25.45-20.18,0-11.47,0-11.47-7.2-2-5,9.89S290.07,124,291,127.92s-4.17,10.75-2.59,17.24,22.15,9.6,24.92,18.14-8.55,12.61-2.29,21.45,15.35,9.66,19.3,11.63-5.93,8.07-2.76,13S349.37,209,349.37,209Z" style="fill:#e0e0e0"></path><path d="M410.3,209s5.93-6.65-1.59-12.62-23.73-1.51-17-13.63,19-20,4.35-27.35-27.29-16.82-19-25.91-32.84-24-31.26-30.19-5.87-9-5.87-9,6.27,2.52,1.92,9,11.87,11.59,17.8,19.11-4.23,3.63-2.91,17.84,24.92,12.95,26.38,27-9.62,19.56,2.24,28.88S387,205.66,391.31,210,410.3,209,410.3,209Z" style="fill:#e0e0e0"></path><polygon points="375.2 383.23 424.68 383.23 414.68 209.63 385.2 209.63 375.2 383.23" style="fill:#f0f0f0"></polygon><rect x="383.13" y="205.42" width="33.63" height="8.97" style="fill:#ebebeb"></rect><polygon points="315.2 383.23 364.68 383.23 354.68 209.63 325.2 209.63 315.2 383.23" style="fill:#f0f0f0"></polygon><rect x="323.13" y="205.42" width="33.63" height="8.97" style="fill:#ebebeb"></rect><polygon points="204.93 303.81 204.93 291.59 173.83 303.81 173.83 291.59 142.72 303.81 142.72 291.59 111.61 303.81 111.61 291.59 74.08 306.33 73.7 306.33 73.7 221.01 54.39 221.01 54.39 383.23 61.68 383.23 73.7 383.23 236.04 383.23 236.04 315.23 236.04 306.33 236.04 291.59 204.93 303.81" style="fill:#e0e0e0"></polygon><rect x="167.45" y="339.16" width="94.45" height="44.07" style="fill:#f0f0f0"></rect><path d="M154,338.25H138.37a4.05,4.05,0,0,0-4.05,4.05v30.85a4.05,4.05,0,0,0,3.08,3.92v6.16H140v-6h4.92v6h2.58v-6h4.92v6H155v-6.16a4,4,0,0,0,3.08-3.92V342.3A4,4,0,0,0,154,338.25Z" style="fill:#f0f0f0"></path><path d="M125.13,338.25H109.48a4,4,0,0,0-4,4.05v30.85a4,4,0,0,0,3.08,3.92v6.16h2.58v-6H116v6h2.58v-6h4.92v6h2.58v-6.16a4.05,4.05,0,0,0,3.08-3.92V342.3A4,4,0,0,0,125.13,338.25Z" style="fill:#f0f0f0"></path><path d="M96.25,338.25H80.6a4,4,0,0,0-4,4.05v30.85a4,4,0,0,0,3.07,3.92v6.16h2.58v-6h4.92v6h2.58v-6h4.92v6h2.58v-6.16a4,4,0,0,0,3.08-3.92V342.3A4,4,0,0,0,96.25,338.25Z" style="fill:#f0f0f0"></path><rect x="327.22" y="355.92" width="53.8" height="27.31" style="fill:#e0e0e0"></rect><rect x="268.5" y="355.92" width="53.8" height="27.31" style="fill:#e0e0e0"></rect><rect x="387.7" y="355.92" width="53.8" height="27.31" style="fill:#e0e0e0"></rect><path d="M72.43,194.25c-.19-3.8,8.11-5.38,9.7-2.22s-1.59,5.54-1.59,5.54,4.75,1.9.8,4.81-5.54,0-5.54,0-4.55,4.09-5.74,2.51,1.19-2.82,1.19-2.82-3.83.25-3.3-3.51S72.43,194.25,72.43,194.25Z" style="fill:#e0e0e0"></path><path d="M60.41,212c-.1-1.9,4-2.69,4.84-1.11a2.31,2.31,0,0,1-.79,2.77s2.38,1,.4,2.41-2.77,0-2.77,0-2.28,2-2.87,1.25.59-1.41.59-1.41-1.91.13-1.64-1.75A2.68,2.68,0,0,1,60.41,212Z" style="fill:#e0e0e0"></path><path d="M58.8,172.35c-.29-5.46,11.64-7.73,13.91-3.19s-2.27,8-2.27,8,6.81,2.73,1.14,6.9-7.95,0-7.95,0-6.54,5.88-8.24,3.61,1.7-4,1.7-4-5.48.34-4.73-5.05S58.8,172.35,58.8,172.35Z" style="fill:#e0e0e0"></path><path d="M155.24,114.3c-1.5-3.51,5.75-7.86,8.33-5.44s.43,5.75.43,5.75,5.11.14,2.4,4.24-5.2,1.91-5.2,1.91-2.86,5.41-4.52,4.33.15-3,.15-3-3.51,1.55-4.31-2.16S155.24,114.3,155.24,114.3Z" style="fill:#f5f5f5"></path><path d="M150.08,135.09c-.75-1.75,2.87-3.93,4.16-2.72a2.32,2.32,0,0,1,.21,2.87s2.56.08,1.2,2.12-2.59,1-2.59,1-1.43,2.71-2.26,2.17.07-1.53.07-1.53a1.48,1.48,0,0,1-2.16-1.08A2.67,2.67,0,0,1,150.08,135.09Z" style="fill:#f5f5f5"></path><path d="M134.88,98.45c-2.15-5,8.26-11.28,12-7.8s.61,8.24.61,8.24,7.34.21,3.45,6.09-7.46,2.74-7.46,2.74-4.1,7.77-6.49,6.23.21-4.38.21-4.38-5,2.22-6.19-3.1S134.88,98.45,134.88,98.45Z" style="fill:#f5f5f5"></path><path d="M282.91,200.39c-1.5-3.51,5.75-7.86,8.33-5.44s.43,5.75.43,5.75,5.11.14,2.4,4.24-5.2,1.91-5.2,1.91-2.86,5.41-4.52,4.33.15-3.05.15-3.05-3.51,1.55-4.31-2.16S282.91,200.39,282.91,200.39Z" style="fill:#f5f5f5"></path><path d="M418.53,144.9c-1.5-3.51,5.75-7.86,8.33-5.44s.43,5.75.43,5.75,5.11.14,2.4,4.24-5.2,1.91-5.2,1.91-2.85,5.41-4.51,4.34.14-3,.14-3-3.51,1.54-4.31-2.17S418.53,144.9,418.53,144.9Z" style="fill:#f5f5f5"></path><path d="M277.74,221.18c-.75-1.75,2.88-3.93,4.17-2.72a2.32,2.32,0,0,1,.21,2.87s2.56.08,1.2,2.12-2.6,1-2.6,1-1.42,2.71-2.25,2.17.07-1.53.07-1.53a1.48,1.48,0,0,1-2.16-1.08A2.67,2.67,0,0,1,277.74,221.18Z" style="fill:#f5f5f5"></path><path d="M429.4,186.27c-.74-1.75,2.88-3.93,4.17-2.72a2.32,2.32,0,0,1,.21,2.87s2.56.08,1.2,2.12-2.6,1-2.6,1-1.42,2.7-2.25,2.17.07-1.53.07-1.53a1.48,1.48,0,0,1-2.16-1.08A2.67,2.67,0,0,1,429.4,186.27Z" style="fill:#f5f5f5"></path><path d="M262.55,184.54c-2.15-5,8.26-11.28,12-7.8s.61,8.24.61,8.24,7.34.21,3.45,6.09-7.46,2.74-7.46,2.74-4.1,7.77-6.49,6.23.21-4.38.21-4.38-5,2.22-6.19-3.1S262.55,184.54,262.55,184.54Z" style="fill:#f5f5f5"></path></g><g id="freepik--Shadow--inject-1"><ellipse id="freepik--path--inject-1" cx="250" cy="416.24" rx="193.89" ry="11.32" style="fill:#f5f5f5"></ellipse></g><g id="freepik--Character--inject-1"><g id="freepik--group--inject-1"><path d="M211.57,259.59a76.94,76.94,0,0,0,4.4,6.62c1.05,1.12,9.65,6.4,10.75,5.74s5-7.35,3.71-8.85-10.64-8.6-14-9.43S211.57,259.59,211.57,259.59Z" style="fill:#000000"></path><path d="M211.57,259.59a76.94,76.94,0,0,0,4.4,6.62c1.05,1.12,9.65,6.4,10.75,5.74s5-7.35,3.71-8.85-10.64-8.6-14-9.43S211.57,259.59,211.57,259.59Z" style="fill:#fff;opacity:0.5"></path><path d="M229.72,166.14s-7.9,19.41-20.23,21.52c0,0-17.71-4.56-18.06-16.72s18.12-18.62,21.29-18.23S229.72,166.14,229.72,166.14Z" style="fill:#000000"></path><path d="M229.72,166.14s-7.9,19.41-20.23,21.52c0,0-17.71-4.56-18.06-16.72s18.12-18.62,21.29-18.23S229.72,166.14,229.72,166.14Z" style="opacity:0.4;isolation:isolate"></path><path d="M191.35,174.24c-.9,6.12.25,15.76.25,15.76l10.23-2.74s-.19-3.54,1.11-5a9.22,9.22,0,0,1,2.95-2.12,17.34,17.34,0,0,1,1.88-.79l1.38-13.17C205.38,170,196.88,178.65,191.35,174.24Z" style="fill:#e4897b"></path><path d="M206.08,170.8c-5.28,3.61-4.13,9-3.14,11.42a9.22,9.22,0,0,1,2.95-2.12Z" style="opacity:0.2;isolation:isolate"></path><path d="M226.75,165.22s-1.8,8.07-8.1,9.74.36-15.59.36-15.59Z" style="fill:#263238"></path><path d="M219.54,178.68a21.34,21.34,0,0,1-1.8,2.11,10.39,10.39,0,0,1-.78.72,10.07,10.07,0,0,1-7,2.3,9,9,0,0,1-8.32-6.64c0-.12-.06-.23-.1-.35-1.24-5,1-8.56,4.29-14.9a9.76,9.76,0,0,1,16.58-1.49C226.34,165.65,223.41,173.57,219.54,178.68Z" style="fill:#e4897b"></path><path d="M214.09,169.18a.89.89,0,0,0,.06,1.26c.33.2.83-.06,1.13-.55s.27-1.07-.06-1.26S214.4,168.68,214.09,169.18Z" style="fill:#263238"></path><path d="M219.74,172.55a.89.89,0,0,0,.06,1.25c.32.2.83-.05,1.13-.55s.27-1.06-.06-1.25S220,172.08,219.74,172.55Z" style="fill:#263238"></path><path d="M217.8,171.73a20.48,20.48,0,0,0-.16,5.69,3.33,3.33,0,0,1-2.67-1Z" style="fill:#de5753"></path><path d="M214,165.54a.4.4,0,0,0,.29.22,2.74,2.74,0,0,1,2.12,1.26.34.34,0,0,0,.46.14.33.33,0,0,0,.14-.46h0a3.36,3.36,0,0,0-2.65-1.62.34.34,0,0,0-.38.29h0A.78.78,0,0,0,214,165.54Z" style="fill:#263238"></path><path d="M212.62,178.54h0a5.22,5.22,0,0,1-3.13-3.68.18.18,0,0,1,.15-.21.17.17,0,0,1,.2.14h0a5,5,0,0,0,2.93,3.41.17.17,0,0,1,.1.22v0a.16.16,0,0,1-.22.1Z" style="fill:#263238"></path><path d="M224.35,170.79a.28.28,0,0,0,.2,0,.34.34,0,0,0,0-.48h0a3.38,3.38,0,0,0-2.88-1.19.34.34,0,0,0-.29.39h0a.34.34,0,0,0,.39.28h0a2.75,2.75,0,0,1,2.27,1A.35.35,0,0,0,224.35,170.79Z" style="fill:#263238"></path><path d="M199.67,171h0a1.48,1.48,0,0,0,2.55-.39c.76-2.13,1.84-3.85,2.4-3.72,1,.21.5,1.25.5,1.25,2.56-.49,5.82-3.4,6.17-6.22a2.54,2.54,0,0,1,4.23-1.41s-5.6-6.46-7.87-5.45-6,5.33-7.57,11.62A14,14,0,0,0,199.67,171Z" style="fill:#263238"></path><path d="M200.12,165.35a6.79,6.79,0,0,0,1.59,5c1.55,1.81,3.65.74,4.33-1.42.58-1.92.52-5.23-1.59-6.23A3,3,0,0,0,200.12,165.35Z" style="fill:#e4897b"></path><path d="M226.75,165.22s-3.07,1.4-8.63-1.83a17.91,17.91,0,0,0,4.3,1s-8.29-2.52-11.36-5.64-3.9-3.23-3.9-3.23l11.43-.93C227,159,228,164,226.75,165.22Z" style="fill:#263238"></path><path d="M207,164.78s2.2,6.35,5.89,8.12a38.55,38.55,0,0,1,6.64,4.14h1.16s-4.8,10.9-12.12,6.78-7.39-13.66-7.39-13.66.82,4,2.92,5.4c0,0,2.25-.69,4.6-5A14.05,14.05,0,0,1,207,164.78Z" style="fill:#000000"></path><path d="M207,164.78s2.2,6.35,5.89,8.12a38.55,38.55,0,0,1,6.64,4.14h1.16s-4.8,10.9-12.12,6.78-7.39-13.66-7.39-13.66.82,4,2.92,5.4c0,0,2.25-.69,4.6-5A14.05,14.05,0,0,1,207,164.78Z" style="fill:#fff;opacity:0.5"></path><path d="M131.4,385.58h-9.55a.69.69,0,0,0-.67.54l-1.55,7a1.16,1.16,0,0,0,.9,1.37,1.07,1.07,0,0,0,.25,0c3.09,0,5.34-.24,9.22-.24,2.39,0,9.6.25,12.9.25s3.73-3.26,2.38-3.56c-6.06-1.32-10.62-3.15-12.56-4.89A1.88,1.88,0,0,0,131.4,385.58Z" style="fill:#263238"></path><path d="M201.9,385.33h-9.55a.69.69,0,0,0-.67.54l-1.55,7a1.16,1.16,0,0,0,.9,1.37,1.07,1.07,0,0,0,.25,0c3.09,0,5.34-.24,9.22-.24,2.39,0,9.6.25,12.9.25s3.73-3.26,2.38-3.56c-6.06-1.32-10.62-3.15-12.56-4.89A1.88,1.88,0,0,0,201.9,385.33Z" style="fill:#263238"></path><path d="M203.31,380.05l-11.6.38C195.53,310.31,197.5,300.35,170,272c-2.91-3-6.16-6.22-9.77-9.73-.88,11.08-1.87,22.58-2.84,32.16-.61,5.93-.79,11.1-1.78,14.9-6.7,25.69-22.82,71.16-22.82,71.16l-11.32.5s14.16-62.31,15.62-82.62c1.91-26.64-7.45-46.85-4.3-72.33.84-6.88,3.8-13.86,6.23-18.69,1.92-3.8,3.52-6.25,3.52-6.25l32.89,17,.17,4.08.26,6.54C211.75,281.24,218.31,292.58,203.31,380.05Z" style="fill:#000000"></path><path d="M210.92,147c-3.53-1.38-22.14,20.22-22.14,20.22l7.73,10.85L207.58,190s16.68-4,23.89-29.45c.06-.21-3.33,5-3.33,5-5.54,16.27-15.57,21.23-17,20.69-3.84-1.52-12.58-10-11.45-11.93,3.63-6.28,13.05-15.16,14.14-15.48,1.53-.45,15.85,7.34,15.85,7.34s1.33-3.68,1.75-5.59S221.51,151.13,210.92,147Z" style="fill:#000000"></path><path d="M208.2,199.58c0,.48-.1.74-.1.74C193.46,205.16,181,214,176.87,217.05c-.92.69-1.42,1.09-1.42,1.09l-32.89-17c7.91-17.54,31.91-31.65,35.87-33.89a10,10,0,0,1,5.51-1,20.48,20.48,0,0,1,4.84,1c4,2,17.47,17.14,18.8,22.78.2.83.34,1.64.45,2.42A29.69,29.69,0,0,1,208.2,199.58Z" style="fill:#000000"></path><path d="M206.14,182.77s-2.3,3.53-11.8,4.89c0,0-15.82,7.66-24.13,22l2,.36a58.35,58.35,0,0,1,22.74-21.21s8.41.28,12.48-5Z" style="opacity:0.2;isolation:isolate"></path><path d="M191,178.54c-.45-.33-8.09-6.12-7.05-12.28a20.48,20.48,0,0,1,4.84,1A16.74,16.74,0,0,0,191,178.54Z" style="opacity:0.2;isolation:isolate"></path><path d="M208,192.42c-2.55,1.6-7.92,4.15-11.71.36-5.14-5.14-3.46-10.56-3.46-10.56,3.87,8.52,14.72,7.78,14.72,7.78C207.78,190.83,207.92,191.64,208,192.42Z" style="opacity:0.2;isolation:isolate"></path><path d="M175.62,222.22c-3.61.31-18.29.45-36.58-14.86,1.92-3.8,3.52-6.25,3.52-6.25a70.37,70.37,0,0,0,32.89,17Z" style="opacity:0.2;isolation:isolate"></path><path d="M170,272c-2.91-3-6.16-6.22-9.77-9.73v-9.17s5.8-5.93,7.78-13.25C168,239.86,172.25,259.09,170,272Z" style="opacity:0.2;isolation:isolate"></path><path d="M189.68,211.15c-8.31,12.85-9.29,27-2.2,31.56l50.39,32.57h0c7.09,4.59,19.57-2.11,27.87-14.95s9.29-27,2.2-31.56h0L217.55,196.2C210.46,191.61,198,198.31,189.68,211.15Z" style="fill:#263238"></path><ellipse cx="252.9" cy="252.03" rx="27.69" ry="15.29" transform="translate(-96.05 327.58) rotate(-57.12)" style="fill:#fff;opacity:0.2"></ellipse><path d="M251.36,251c-5.24,8.11-5.86,17-1.38,19.92l3.25,2.11h0c4.48,2.89,12.36-1.33,17.6-9.44s5.86-17,1.39-19.92h0L269,241.59C264.48,238.7,256.6,242.92,251.36,251Z" style="fill:#263238"></path><path d="M272.22,243.7c4.47,2.89,3.85,11.81-1.39,19.92s-13.12,12.33-17.6,9.44-3.85-11.81,1.39-19.92S267.74,240.8,272.22,243.7Z" style="fill:#fff;opacity:0.2"></path><ellipse cx="263.58" cy="258.93" rx="13.32" ry="7.35" transform="translate(-96.97 339.7) rotate(-57.12)" style="fill:#263238"></ellipse><path d="M234.35,207.06l16.79,10.86c-7.09-4.59-19.57,2.11-27.87,15s-9.29,27-2.19,31.55l-16.8-10.85c-7.1-4.59-6.11-18.72,2.19-31.56S227.25,202.47,234.35,207.06Z" style="fill:#000000"></path><path d="M214.64,228.78l-2.71,4.2a6.24,6.24,0,0,0,6.24.32l-2.28-4.46A1.25,1.25,0,0,1,214.64,228.78Z" style="fill:#fff"></path><path d="M214.27,227.05a1.31,1.31,0,0,1,.48-.43l-2.28-4.45a6.24,6.24,0,0,0-3.39,5.25l5,.25A1.3,1.3,0,0,1,214.27,227.05Z" style="fill:#fff"></path><path d="M216,226.68a1.24,1.24,0,0,1,.57,1.11l5,.26a6.25,6.25,0,0,0-2.84-5.57Z" style="fill:#fff"></path><path d="M214.81,227.4a.61.61,0,0,0,.18.85.62.62,0,0,0,.85-.19.61.61,0,0,0-1-.66Z" style="fill:#fff"></path><path d="M208.2,199.58c0,.48-.1.74-.1.74C193.46,205.16,181,214,176.87,217.05c-8.89-12.39-5.94-34.83-5.94-34.83l12.7-3.68s2,10.28,5.15,13.64C190.89,194.44,201.47,197.69,208.2,199.58Z" style="opacity:0.2;isolation:isolate"></path><path d="M181.88,169.07c2.77,8.68,2.17,25.09,4,28.66s29.68,4.94,29.68,4.94l-.81,7s-25,4.21-33.62.36-10.22-27.29-10.42-31.49S181.88,169.07,181.88,169.07Z" style="fill:#000000"></path><path d="M211.93,202.45s6.07-2.15,7.59-2.35,11.53,1.15,12,2.35-.75,8.89-2.73,9.2-13.68-.06-16.83-1.55S211.93,202.45,211.93,202.45Z" style="fill:#000000"></path><path d="M211.93,202.45s6.07-2.15,7.59-2.35,11.53,1.15,12,2.35-.75,8.89-2.73,9.2-13.68-.06-16.83-1.55S211.93,202.45,211.93,202.45Z" style="fill:#fff;opacity:0.5"></path><path d="M120.93,387.26s-.77-2.83,1.41-16.37h14.84s-2.91,14.43-4.72,16.37S120.93,387.26,120.93,387.26Z" style="fill:#263238"></path><path d="M190.93,387.36s-.94-2.85.41-16.47h14.84s-2,14.52-3.73,16.47S190.93,387.36,190.93,387.36Z" style="fill:#263238"></path></g></g><g id="freepik--Bridge--inject-1"><path d="M87.5,397.31V288.12a1.77,1.77,0,0,1,1.77-1.77h55.38v111h7v-111h59.49v111h7v-111h59.48v111h7v-111h59.49v111h7v-111h55.37a1.78,1.78,0,0,1,1.78,1.77V397.31h7V288.12a8.78,8.78,0,0,0-8.78-8.77H89.27a8.78,8.78,0,0,0-8.77,8.77V397.31Z" style="fill:#000000"></path><path d="M87.5,397.31V288.12a1.77,1.77,0,0,1,1.77-1.77h55.38v111h7v-111h59.49v111h7v-111h59.48v111h7v-111h59.49v111h7v-111h55.37a1.78,1.78,0,0,1,1.78,1.77V397.31h7V288.12a8.78,8.78,0,0,0-8.78-8.77H89.27a8.78,8.78,0,0,0-8.77,8.77V397.31Z" style="fill:#fff;opacity:0.5"></path><path d="M71.65,394.28H428.35a6.47,6.47,0,0,1,6.47,6.47V415.4a0,0,0,0,1,0,0H65.18a0,0,0,0,1,0,0V400.75A6.47,6.47,0,0,1,71.65,394.28Z" style="fill:#263238"></path><path d="M71.65,394.28H428.35a6.47,6.47,0,0,1,6.47,6.47V415.4a0,0,0,0,1,0,0H65.18a0,0,0,0,1,0,0V400.75A6.47,6.47,0,0,1,71.65,394.28Z" style="fill:#fff;opacity:0.2"></path></g><g id="freepik--hazardous-liquid--inject-1"><path d="M264.37,260.33s19.78,13.91,29,46.09,7.93,40,10.69,40.54,2.24-17.15,4.61-17.41-3.16,33.49,0,36.13,8.18-8.7,10-1.58-5.54,28.42-2.9,34.52,5.91-6,9.16-1.82.07,10.55,3,12.66,12.4,4.22,19.26-1.58,16.61-5.8,16.88-.26,15.29,5.53,21.62,1.84,6.86,4.75,6.86,4.75,40-1,46.15,1.19c0,0-66.46,8.57-169.32,8.57S61.3,416.24,61.3,416.24s3.73-2,15.18-2.29,56.45.19,76.93-1.49c9-.74,29.18-8.54,35.13-5.37s13.26,5.54,16.06,1.05,9.14-14.23,17.31-8.3S234.57,410,242.22,410s12.46.26,17.3-6.59,12,1.71,16.46,1.51,17.67,3,12.39-12.06-6.59-20.8-1.32-17.52,5.54,2.92,3.7-14.44-6.33-48.22-10.29-57.71,2.11-2.91,4.75,2.63.79-2-5-14.16S271,275.51,271.1,275s5.41,4.16,4.88,2S264.37,260.33,264.37,260.33Z" style="fill:#000000"></path><path d="M308.51,385.87a3.35,3.35,0,1,1-3.34-3.35A3.35,3.35,0,0,1,308.51,385.87Z" style="fill:#fff;opacity:0.5"></path><path d="M359.19,412.06a3.34,3.34,0,1,1-3.34-3.35A3.35,3.35,0,0,1,359.19,412.06Z" style="fill:#fff;opacity:0.5"></path><path d="M269.83,415.4a3.35,3.35,0,1,1-3.35-3.34A3.34,3.34,0,0,1,269.83,415.4Z" style="fill:#fff;opacity:0.5"></path><path d="M298.48,347.62a3.34,3.34,0,1,1-3.34-3.34A3.34,3.34,0,0,1,298.48,347.62Z" style="fill:#fff;opacity:0.5"></path><path d="M218.27,404.91a3.34,3.34,0,1,1-3.34-3.34A3.34,3.34,0,0,1,218.27,404.91Z" style="fill:#fff;opacity:0.5"></path><circle cx="296.81" cy="367.89" r="1.67" style="fill:#fff;opacity:0.5"></circle><circle cx="389.12" cy="415.4" r="1.67" style="fill:#fff;opacity:0.5"></circle><path d="M234.92,412.06a1.67,1.67,0,1,1-1.67-1.67A1.67,1.67,0,0,1,234.92,412.06Z" style="fill:#fff;opacity:0.5"></path><path d="M182.85,413.73a1.68,1.68,0,1,1-1.68-1.67A1.68,1.68,0,0,1,182.85,413.73Z" style="fill:#fff;opacity:0.5"></path><circle cx="304.07" cy="415.4" r="1.67" style="fill:#fff;opacity:0.5"></circle><path d="M296.81,330.87a1.67,1.67,0,1,1-1.67-1.67A1.67,1.67,0,0,1,296.81,330.87Z" style="fill:#fff;opacity:0.5"></path><path d="M296.81,313.46a1.67,1.67,0,1,1-1.67-1.67A1.67,1.67,0,0,1,296.81,313.46Z" style="fill:#fff;opacity:0.5"></path><path d="M287,289.51a.84.84,0,1,1-.84-.84A.84.84,0,0,1,287,289.51Z" style="fill:#fff;opacity:0.5"></path><circle cx="282.31" cy="270.18" r="0.84" style="fill:#fff;opacity:0.5"></circle><path d="M371.71,332.54a10.75,10.75,0,0,0-2.07,4.44,15.58,15.58,0,0,0-.17,4.82,54.33,54.33,0,0,0,2.24,9.63,74.3,74.3,0,0,1,2.46,9.88,16.91,16.91,0,0,1,.05,5.22,7.22,7.22,0,0,1-2.51,4.47,7.85,7.85,0,0,0,1.54-4.57,19.39,19.39,0,0,0-.62-4.83c-.77-3.2-1.87-6.36-2.84-9.6a39.21,39.21,0,0,1-1.88-10.11,14.29,14.29,0,0,1,.8-5.18A9.26,9.26,0,0,1,371.71,332.54Z" style="fill:#000000"></path><path d="M341.91,348.66a10.69,10.69,0,0,0-2.07,4.44,15.89,15.89,0,0,0-.18,4.82,55.44,55.44,0,0,0,2.24,9.63,75.1,75.1,0,0,1,2.47,9.88,17.23,17.23,0,0,1,.05,5.22,7.25,7.25,0,0,1-2.51,4.47,7.93,7.93,0,0,0,1.54-4.58,19.37,19.37,0,0,0-.62-4.82c-.77-3.2-1.88-6.36-2.84-9.61a38.64,38.64,0,0,1-1.88-10.1,14.56,14.56,0,0,1,.79-5.19A9.38,9.38,0,0,1,341.91,348.66Z" style="fill:#000000"></path><path d="M402.82,358.89a10.62,10.62,0,0,0-2.07,4.44,15.28,15.28,0,0,0-.18,4.82,55.22,55.22,0,0,0,2.24,9.63,74.3,74.3,0,0,1,2.46,9.88,16.91,16.91,0,0,1,.06,5.22,7.32,7.32,0,0,1-2.51,4.47,7.82,7.82,0,0,0,1.53-4.57,19.38,19.38,0,0,0-.61-4.83c-.77-3.2-1.88-6.36-2.85-9.6A39.2,39.2,0,0,1,399,368.24a14.28,14.28,0,0,1,.79-5.18A9.26,9.26,0,0,1,402.82,358.89Z" style="fill:#000000"></path><path d="M255.49,358.89a10.75,10.75,0,0,0-2.07,4.44,15.89,15.89,0,0,0-.18,4.82,54.37,54.37,0,0,0,2.25,9.63,74.3,74.3,0,0,1,2.46,9.88,17.23,17.23,0,0,1,.05,5.22,7.22,7.22,0,0,1-2.51,4.47,7.83,7.83,0,0,0,1.54-4.57,19.39,19.39,0,0,0-.62-4.83c-.77-3.2-1.87-6.36-2.84-9.6a38.79,38.79,0,0,1-1.88-10.11,14.5,14.5,0,0,1,.79-5.18A9.41,9.41,0,0,1,255.49,358.89Z" style="fill:#000000"></path><path d="M223.37,341.66a10.57,10.57,0,0,0-2.07,4.44,15.28,15.28,0,0,0-.18,4.82,55.22,55.22,0,0,0,2.24,9.63,73.92,73.92,0,0,1,2.46,9.88,16.91,16.91,0,0,1,.06,5.22,7.35,7.35,0,0,1-2.51,4.47,7.85,7.85,0,0,0,1.53-4.58,19.36,19.36,0,0,0-.61-4.82c-.77-3.2-1.88-6.36-2.85-9.61a39,39,0,0,1-1.87-10.1,14.37,14.37,0,0,1,.79-5.19A9.23,9.23,0,0,1,223.37,341.66Z" style="fill:#000000"></path><path d="M189.1,348.66A10.71,10.71,0,0,0,187,353.1a15.58,15.58,0,0,0-.17,4.82,54.54,54.54,0,0,0,2.24,9.63,73.54,73.54,0,0,1,2.46,9.88,16.91,16.91,0,0,1,.06,5.22,7.35,7.35,0,0,1-2.51,4.47,7.85,7.85,0,0,0,1.53-4.58,19.84,19.84,0,0,0-.61-4.82c-.77-3.2-1.88-6.36-2.85-9.61A39,39,0,0,1,185.3,358a14.12,14.12,0,0,1,.79-5.19A9.23,9.23,0,0,1,189.1,348.66Z" style="fill:#000000"></path><path d="M153,362.75a10.57,10.57,0,0,0-2.07,4.44,15.89,15.89,0,0,0-.18,4.82,55.44,55.44,0,0,0,2.24,9.63,75.1,75.1,0,0,1,2.47,9.88,17.23,17.23,0,0,1,.05,5.22,7.3,7.3,0,0,1-2.51,4.47,7.85,7.85,0,0,0,1.53-4.58,19.3,19.3,0,0,0-.61-4.82c-.77-3.2-1.88-6.36-2.85-9.61a39,39,0,0,1-1.87-10.1,14.34,14.34,0,0,1,.79-5.19A9.31,9.31,0,0,1,153,362.75Z" style="fill:#000000"></path><g style="opacity:0.7000000000000001"><path d="M371.71,332.54a10.75,10.75,0,0,0-2.07,4.44,15.58,15.58,0,0,0-.17,4.82,54.33,54.33,0,0,0,2.24,9.63,74.3,74.3,0,0,1,2.46,9.88,16.91,16.91,0,0,1,.05,5.22,7.22,7.22,0,0,1-2.51,4.47,7.85,7.85,0,0,0,1.54-4.57,19.39,19.39,0,0,0-.62-4.83c-.77-3.2-1.87-6.36-2.84-9.6a39.21,39.21,0,0,1-1.88-10.11,14.29,14.29,0,0,1,.8-5.18A9.26,9.26,0,0,1,371.71,332.54Z" style="fill:#fff"></path><path d="M341.91,348.66a10.69,10.69,0,0,0-2.07,4.44,15.89,15.89,0,0,0-.18,4.82,55.44,55.44,0,0,0,2.24,9.63,75.1,75.1,0,0,1,2.47,9.88,17.23,17.23,0,0,1,.05,5.22,7.25,7.25,0,0,1-2.51,4.47,7.93,7.93,0,0,0,1.54-4.58,19.37,19.37,0,0,0-.62-4.82c-.77-3.2-1.88-6.36-2.84-9.61a38.64,38.64,0,0,1-1.88-10.1,14.56,14.56,0,0,1,.79-5.19A9.38,9.38,0,0,1,341.91,348.66Z" style="fill:#fff"></path><path d="M402.82,358.89a10.62,10.62,0,0,0-2.07,4.44,15.28,15.28,0,0,0-.18,4.82,55.22,55.22,0,0,0,2.24,9.63,74.3,74.3,0,0,1,2.46,9.88,16.91,16.91,0,0,1,.06,5.22,7.32,7.32,0,0,1-2.51,4.47,7.82,7.82,0,0,0,1.53-4.57,19.38,19.38,0,0,0-.61-4.83c-.77-3.2-1.88-6.36-2.85-9.6A39.2,39.2,0,0,1,399,368.24a14.28,14.28,0,0,1,.79-5.18A9.26,9.26,0,0,1,402.82,358.89Z" style="fill:#fff"></path><path d="M255.49,358.89a10.75,10.75,0,0,0-2.07,4.44,15.89,15.89,0,0,0-.18,4.82,54.37,54.37,0,0,0,2.25,9.63,74.3,74.3,0,0,1,2.46,9.88,17.23,17.23,0,0,1,.05,5.22,7.22,7.22,0,0,1-2.51,4.47,7.83,7.83,0,0,0,1.54-4.57,19.39,19.39,0,0,0-.62-4.83c-.77-3.2-1.87-6.36-2.84-9.6a38.79,38.79,0,0,1-1.88-10.11,14.5,14.5,0,0,1,.79-5.18A9.41,9.41,0,0,1,255.49,358.89Z" style="fill:#fff"></path><path d="M223.37,341.66a10.57,10.57,0,0,0-2.07,4.44,15.28,15.28,0,0,0-.18,4.82,55.22,55.22,0,0,0,2.24,9.63,73.92,73.92,0,0,1,2.46,9.88,16.91,16.91,0,0,1,.06,5.22,7.35,7.35,0,0,1-2.51,4.47,7.85,7.85,0,0,0,1.53-4.58,19.36,19.36,0,0,0-.61-4.82c-.77-3.2-1.88-6.36-2.85-9.61a39,39,0,0,1-1.87-10.1,14.37,14.37,0,0,1,.79-5.19A9.23,9.23,0,0,1,223.37,341.66Z" style="fill:#fff"></path><path d="M189.1,348.66A10.71,10.71,0,0,0,187,353.1a15.58,15.58,0,0,0-.17,4.82,54.54,54.54,0,0,0,2.24,9.63,73.54,73.54,0,0,1,2.46,9.88,16.91,16.91,0,0,1,.06,5.22,7.35,7.35,0,0,1-2.51,4.47,7.85,7.85,0,0,0,1.53-4.58,19.84,19.84,0,0,0-.61-4.82c-.77-3.2-1.88-6.36-2.85-9.61A39,39,0,0,1,185.3,358a14.12,14.12,0,0,1,.79-5.19A9.23,9.23,0,0,1,189.1,348.66Z" style="fill:#fff"></path><path d="M153,362.75a10.57,10.57,0,0,0-2.07,4.44,15.89,15.89,0,0,0-.18,4.82,55.44,55.44,0,0,0,2.24,9.63,75.1,75.1,0,0,1,2.47,9.88,17.23,17.23,0,0,1,.05,5.22,7.3,7.3,0,0,1-2.51,4.47,7.85,7.85,0,0,0,1.53-4.58,19.3,19.3,0,0,0-.61-4.82c-.77-3.2-1.88-6.36-2.85-9.61a39,39,0,0,1-1.87-10.1,14.34,14.34,0,0,1,.79-5.19A9.31,9.31,0,0,1,153,362.75Z" style="fill:#fff"></path></g></g></svg>
