<svg xmlns="http://www.w3.org/2000/svg" viewBox="0 0 500 500"><g id="freepik--Plants--inject-13"><g id="freepik--Shrubbery--inject-13"><path d="M463,307.52c7.31,7.31,2.13,14-6.07,13.47,3.27,8.7-2.66,15.44-5.51,16.51H47.72v-.05c-14-5.91-14.28-24.63-5.7-27.66-6-1.26-7.6-14.46.57-12.58l-.16-.12.24.15a8.08,8.08,0,0,1-1.55-1.65c-1.33-1.63-2.06-4.27-.34-5.9-4.32.7-9.33-3-7.21-7.59-5.28-2.56-4.14-11.85,1-14-5.48-4.45-3.18-13.87,3.35-15.92a6.43,6.43,0,0,1-1.53-3.89c-.58-9.72,7.54-14,9.67-14.29a9.91,9.91,0,0,1,3.54-10.69A10.34,10.34,0,0,1,57.86,221c-1.81-.37,2.81-8.49,3.48-9.17,2.86-2.86,6-3.22,9.84-3.3,1.85-4.58,5.4-8.83,10.21-10s10.64,2.05,11,7c4.6-3.88,13-.58,13.75,5.38a10.34,10.34,0,0,1,11,.74,9.22,9.22,0,0,1,13.14-12.54,6.13,6.13,0,1,1,11-5.46c-1.51-6.29,1-13.85,6.9-16.49s14.23,2.11,13.58,8.54a8.8,8.8,0,0,1,11.13,3.89,9,9,0,0,1,15.6-8.89,9.31,9.31,0,0,1,10.12-8.36,17.64,17.64,0,0,1,5.22,1.87c4.8,2.3,10.28,5.55,10.63,10.87a9.5,9.5,0,0,1,11.19,6.5A15.08,15.08,0,0,1,250.43,182c3.29-3.12,9.83-.63,10.21,3.89,1.26-2.65,5.34-2.69,7.58-.79s3.11,4.91,3.87,7.75a6.6,6.6,0,0,1,8.22-.93c-.37-3.88.44-8.08,3.17-10.86s7.64-3.53,10.52-.91c.67-6.22,6.28-11.85,12.52-11.49a22,22,0,0,1,7,2.05c4.9,2.07,10.71,5.62,10,10.9,5.1.35,9.11,6,7.75,10.94A3.47,3.47,0,0,1,337,192c1.4-4.84,6.85-4.47,10.12-2.08a7.7,7.7,0,0,1,15.27.74c2.14-2,5.9-1.65,8,.44a8.13,8.13,0,0,1,1.56,8.24,6.39,6.39,0,0,1,1.65,11.17,5,5,0,0,1,5.1,5.39,8.1,8.1,0,0,1,7.69-4c-.75-.07-1.48-3.28-1.5-3.87a7.35,7.35,0,0,1,1.43-4.71,5.72,5.72,0,0,1,6.09-2.06,9.56,9.56,0,0,1,.61-4.93c1.18-2.34,4-3.37,6.63-3.47a8.1,8.1,0,0,1,3.68.61,4.31,4.31,0,0,1,2.41,2.72,8.59,8.59,0,0,1,4.71-3.67,6.76,6.76,0,0,1,5.83.9c2.58,1.87,3.25,5.44,3.16,8.63a11.67,11.67,0,0,1,6,1.34,9.72,9.72,0,0,1,1.93,1.52,10.23,10.23,0,0,1,1.13,1.39,6.76,6.76,0,0,1,.28,7.37c5.92.14,7.83,8.89,3.39,12.52,3.42.92,4.53,7.72.54,11.12,2.3,0,5.9,4.85,5.8,7.46,2.27-5,10.83-4.12,11,2.39,5.85-2.5,10.92,2.85,9,8.55,6.1,1.21,7.15,8.68,5.19,13.72,8.35,1.19,9.21,13.78,4.08,19.45C472.21,292.11,472.22,307.2,463,307.52Z" style="fill:#f5f5f5"></path><path d="M411.69,217.58a5.94,5.94,0,0,0-8.88-.57,6.57,6.57,0,0,0-1.17,1.52,6,6,0,0,0-4.83-1.53,6.54,6.54,0,0,0-5.35,5.47,7.17,7.17,0,0,1,12.45,1.61,6.61,6.61,0,0,0,0-1.17,7.32,7.32,0,0,0-.85-2.64,7.59,7.59,0,0,1,.65-.75,7,7,0,0,1,8.65-1A6.25,6.25,0,0,0,411.69,217.58Z" style="fill:#f0f0f0"></path><path d="M331.34,212.7a4.58,4.58,0,0,1,6.85-.44,5.3,5.3,0,0,1,.9,1.17,4.57,4.57,0,0,1,3.72-1.18,5,5,0,0,1,4.13,4.22,5.53,5.53,0,0,0-9.6,1.24,4.57,4.57,0,0,1,0-.9,5.5,5.5,0,0,1,.66-2,5.47,5.47,0,0,0-.51-.57,5.39,5.39,0,0,0-6.67-.77A3.88,3.88,0,0,1,331.34,212.7Z" style="fill:#f0f0f0"></path><path d="M444.7,303.42a4.88,4.88,0,0,1-.53,0A1.39,1.39,0,0,1,444.7,303.42Z" style="fill:#f0f0f0"></path><path d="M463,307.52c7.31,7.31,2.13,14-6.07,13.47,3.27,8.7-2.66,15.44-5.51,16.51H441.8c2.65-2.49,6.06-4.55,5-9.1-.89-3.69.74-7.81-1.83-9.65.9-1.1,2-2,2.93-3a3.55,3.55,0,0,0,1.28-2.45c0-2.48-.74-4.75-2.83-6-1.82-1.12-.23-3.62-1.62-3.81a5.62,5.62,0,0,0,4-1.8,4.17,4.17,0,0,0,.41-4.93c3.25,1,7,1.47,9.7-.74,2.51-2.09,3.17-6.22,1.83-9.33a9.68,9.68,0,0,0-7.49-5.59c3.18-.66,5.17-5,3.73-8.2a7.44,7.44,0,0,0-3.19-3.28c-3.17-1.78-7.47-1.52-9.86,1.35a8.78,8.78,0,0,0-3.77-8.61,7.3,7.3,0,0,0-8.71,1,7.62,7.62,0,0,0-.18-6.48A6.7,6.7,0,0,0,428.4,254c-.41-.23-1.28-.31-1.25-1a1.33,1.33,0,0,1,.17-.43,13.62,13.62,0,0,0,.71-1.55,6.12,6.12,0,0,0-.3-4.55c-1.86-3.54-5.21-3.28-7.26-2.33,2.56-3.83-1.53-10.32-5.56-6.92,2-2.5,3.26-3.76,5.54-4.22,1.69-.35,4-.13,5.12.94,1.82-2.67,1.23-9.24-3.31-9.87,3.32-4.26,1.27-9.13-3.18-10.77,1.87-1,4.71-1.42,5.74-3.81,1.17-2.67-.29-5.26-1.89-7.21l.32.09a1.92,1.92,0,0,1,.32.09,7.53,7.53,0,0,1,1.32.55,4.86,4.86,0,0,1,.55.29l0,0c.21.12.41.25.61.39l.23.17c.14.11.28.21.41.33s.27.24.4.36a.68.68,0,0,1,.12.12l.13.13a2.8,2.8,0,0,1,.28.31,7.92,7.92,0,0,1,.84,1.07h0a1.31,1.31,0,0,1,.17.28,2.32,2.32,0,0,1,.19.31,10.15,10.15,0,0,1,.55,1.27,1.13,1.13,0,0,1,0,.15.26.26,0,0,1,0,.11,2.17,2.17,0,0,1,.07.24,1.29,1.29,0,0,1,0,.19,1.42,1.42,0,0,1,0,.2,6.63,6.63,0,0,1-.85,4.62,5.07,5.07,0,0,1,3.86,1.73c.14.15.27.3.4.46,2.16,2.84,2.29,7.72-.87,10.33,3.42.92,4.53,7.72.54,11.12,2.3,0,5.9,4.85,5.8,7.46a3.49,3.49,0,0,1,.39-.74,4.94,4.94,0,0,1,.49-.64,2.47,2.47,0,0,1,.28-.28,4.67,4.67,0,0,1,1-.71q.36-.19.72-.36h0a6.91,6.91,0,0,1,.77-.25c3.21-.83,7.22.84,7.37,5.37a6.68,6.68,0,0,1,7.9,1.67,7,7,0,0,1,1.35,5.65,10.13,10.13,0,0,1-.3,1.24,7.46,7.46,0,0,1,3.11,1.44,2.6,2.6,0,0,1,.36.3,7.49,7.49,0,0,1,.81.89,10.34,10.34,0,0,1,1.8,6.76c0,.41-.06.82-.11,1.23s-.14.85-.23,1.26-.2.83-.33,1.23c-.07.21-.13.4-.21.6a6.92,6.92,0,0,1,2.07.53,4.44,4.44,0,0,1,.72.37,3.87,3.87,0,0,1,.68.46,6.21,6.21,0,0,1,.63.52l.29.29c3.85,4.08,3.87,12.71-.31,17.28C472.21,292.11,472.22,307.2,463,307.52Z" style="fill:#f0f0f0"></path><path d="M55.16,329.07c-5.09,1.15-1.28-13.19,2.19-15.44-10.88-1.83-6.56-10.74-4.07-13.08-7.07-1.42-8.33-9.75-1.2-14.16-1.53-.5-3.75-2.81-2.2-6.94,1.82-4.84,9-5.36,11-5.54-1.56-.37-6.13-5.91-1.78-10.45a13.08,13.08,0,0,1-3.55,1.85A5.86,5.86,0,0,1,51,265c-.85-.49-4.08-3.6-.93-7-8,.21-2.31-10.85,4-10.48-2.9-1.82-5.21-4-4.15-7.89a9,9,0,0,1,6.54-6c-5-2.81-7.9-6.65-5.59-11.21a13.06,13.06,0,0,0-1.28.87,10.55,10.55,0,0,0-1.22,1.09h0A10.53,10.53,0,0,0,46,234c-2.13.26-10.25,4.57-9.67,14.29a6.43,6.43,0,0,0,1.53,3.89c-6.53,2.05-8.83,11.47-3.35,15.92-5.13,2.17-6.27,11.46-1,14-2.12,4.55,2.89,8.29,7.21,7.59-1.72,1.63-1,4.27.34,5.9a8.08,8.08,0,0,0,1.55,1.65l-.24-.15.16.12c-8.17-1.88-6.56,11.32-.57,12.58-8.58,3-8.28,21.75,5.7,27.66v.05h15C58.79,336.28,55.33,333.51,55.16,329.07Z" style="fill:#f0f0f0"></path><path d="M72.3,337.49h.08v0Z" style="fill:#f0f0f0"></path><path d="M115.11,228.52a6,6,0,0,0-8.74-1.82,6.08,6.08,0,0,0-1.33,1.35,6,6,0,0,0-4.61-2.2,6.34,6.34,0,0,0-6,4.66,7.2,7.2,0,0,1,5.08-2.16,7.54,7.54,0,0,1,7.07,5.52,5.66,5.66,0,0,0,.1-1.17,7.46,7.46,0,0,0-.52-2.74,7.53,7.53,0,0,1,.73-.65,7,7,0,0,1,8.7.24A5.53,5.53,0,0,0,115.11,228.52Z" style="fill:#f0f0f0"></path><path d="M147.9,212.46a4.91,4.91,0,0,1,6.59-3,5.13,5.13,0,0,1,1.25.83,5.08,5.08,0,0,1,3.3-2.54,4.89,4.89,0,0,1,5.37,2.62,5.57,5.57,0,0,0-4.3-.8,6.33,6.33,0,0,0-4.75,5.57,5,5,0,0,1-.25-.9,5.82,5.82,0,0,1,0-2.24,5.54,5.54,0,0,0-7.48,1.33A4.36,4.36,0,0,1,147.9,212.46Z" style="fill:#f0f0f0"></path><path d="M62.05,245.54a3.65,3.65,0,0,1,5.46-.28,4,4,0,0,1,.71.94,3.62,3.62,0,0,1,3-.9,4,4,0,0,1,3.25,3.39,4.41,4.41,0,0,0-7.65.9,4.43,4.43,0,0,1,0-.72,4.51,4.51,0,0,1,.54-1.61,4.31,4.31,0,0,0-5.7-1.14A4.21,4.21,0,0,1,62.05,245.54Z" style="fill:#f0f0f0"></path></g><g id="freepik--plants--inject-13"><path d="M106.43,234c2.4,10.33,3.69,81.13,4.26,103.43h2.4c0-12.18-1.81-69.56-2-73.54-.57-10-.22-20.55-2.49-30.29-1.12-4.77-2.13-10.09-4-14.62-1.72-4.11-3.88-7.81-7.86-10.15a19.5,19.5,0,0,0-9.91-2.7,17.12,17.12,0,0,0-8.62,2.29,22.72,22.72,0,0,0-3,2.11c-.48.4-.93.85-1.42,1.24-.09.06-1.08.94-1,.95.62.07,1.33-.66,1.8-1a20.25,20.25,0,0,1,3.92-2.1A18.72,18.72,0,0,1,87.93,208a15.23,15.23,0,0,1,9.18,3.64,17,17,0,0,1,3,3.78,29.11,29.11,0,0,1,2.59,5.4A127.26,127.26,0,0,1,106.43,234Z" style="fill:#e0e0e0"></path><path d="M99.93,225.66c0-.13-.07-.25-.11-.39s-.1-.35-.16-.53a15.89,15.89,0,0,0-1-2.48,10.11,10.11,0,0,0-.52-1A14.34,14.34,0,0,0,97,219.55a17.13,17.13,0,0,0-1.16-1.45c-5-5.66-14.85-7.43-21.77-6.36A23.54,23.54,0,0,0,61.19,204c-5.55-1.28-10.55-.08-14.66,4.65,5.93.38,13.88,4.67,12.27,5.8s-5.95-3.07-16.15-3S31.7,217,31.44,222.57c3.46-4.31,12.32-4.67,19-4.26s10.16,2.85,7.4,3.77-12,.19-20.77,2.47S26.83,241,27.77,246a35.82,35.82,0,0,1,14.35-10c2.2-.81,6-1.55.82,2.09A79.62,79.62,0,0,0,29.8,249.88c-3.47,3.67-.05,9.39,3.82,13.91A34,34,0,0,1,44.15,250c3.07-2.24,5.75-3.15,1.91,2C43,256,37.28,265.1,37.72,268s8.13,12.68,8.13,12.68,15-4.82,16.64-8-3.61-22-3.17-26,4.41-.14,6.32,9.58-2,17.19-.74,18.58,9.49-1.49,11-5.89-2.52-18.26-5.66-25.19-5.62-9.5-2.25-11.48,9.53,4.59,12.38,13.87-1,16.37.52,16.9,7.26-1.32,9.75-7-3.44-17.71-8.63-23.66-6.15-7.27-2.22-6.06,9,6.24,11.37,13.82.55,12.88,2.09,13.3,6.5-5.34,5.68-10.56S92.32,229.47,87.84,225s-1.94-4.8,3.35-.52a14.78,14.78,0,0,1,2.24,2.3c.22.27.43.56.64.85a41.66,41.66,0,0,1,2.56,4.2l.41.73c.06.12.13.23.19.34s.24.44.35.62l.17.27c.11.18.22.34.32.48s.21.25.3.35c.34.35.64.41.93.12a2,2,0,0,0,.35-.61l.18-.45a9.73,9.73,0,0,0,.29-1,12.24,12.24,0,0,0,.27-1.71A15.94,15.94,0,0,0,99.93,225.66Z" style="fill:#e0e0e0"></path><path d="M99.93,225.66c0-.13-.07-.25-.11-.39s-.1-.35-.16-.53a15.89,15.89,0,0,0-1-2.48,10.11,10.11,0,0,0-.52-1A14.34,14.34,0,0,0,97,219.55a17.13,17.13,0,0,0-1.16-1.45c-5-5.66-14.85-7.43-21.77-6.36C54,229.35,45.85,261,45.85,280.68c0,0,15-4.82,16.64-8s-3.61-22-3.17-26,4.41-.14,6.32,9.58-2,17.19-.74,18.58,9.49-1.49,11-5.89-2.52-18.26-5.66-25.19-5.62-9.5-2.25-11.48,9.53,4.59,12.38,13.87-1,16.37.52,16.9,7.26-1.32,9.75-7-3.44-17.71-8.63-23.66-6.15-7.27-2.22-6.06,9,6.24,11.37,13.82.55,12.88,2.09,13.3,6.5-5.34,5.68-10.56S92.32,229.47,87.84,225s-1.94-4.8,3.35-.52a14.78,14.78,0,0,1,2.24,2.3c.22.27.43.56.64.85a41.66,41.66,0,0,1,2.56,4.2l.41.73c.06.12.13.23.19.34s.24.44.35.62l.17.27c.11.18.22.34.32.48s.21.25.3.35c.34.35.64.41.93.12a2,2,0,0,0,.36-.61c.06-.15.12-.3.17-.45a7.73,7.73,0,0,0,.29-1,10.74,10.74,0,0,0,.27-1.71A15.43,15.43,0,0,0,99.93,225.66Z" style="fill:#e6e6e6"></path><path d="M74.08,211.74c-17.84,17.9-26.35,44.16-28.23,68.94-.76-24.34,8.9-53.28,28.23-68.94Z" style="fill:#e0e0e0"></path><g style="opacity:0.25"><path d="M74.08,211.74c-17.84,17.9-26.35,44.16-28.23,68.94-.76-24.34,8.9-53.28,28.23-68.94Z"></path></g><path d="M124.57,337.46h1.75c-3.11-21.65-7.93-111.84-6.54-126.42a76.49,76.49,0,0,1,2-11.94,33.87,33.87,0,0,1,3-8.15,13.49,13.49,0,0,1,2-2.85c3.84-4.1,9.53-5.15,14.83-4-1.71-1.45-7.35-1.61-10.62-.34a13.8,13.8,0,0,0-6.72,5.12A30,30,0,0,0,120,198.3a77.07,77.07,0,0,0-2.13,12.64,151.12,151.12,0,0,0-.15,26.14C118.27,243.93,122.17,320.8,124.57,337.46Z" style="fill:#e0e0e0"></path><path d="M130.89,205.77a10.39,10.39,0,0,0,.79,1,6.82,6.82,0,0,0,.55.53l.28.22a1.55,1.55,0,0,0,.45.26c.29.08.45-.07.54-.41a1.61,1.61,0,0,0,.06-.33c0-.13,0-.27,0-.42a1.93,1.93,0,0,1,0-.24v-.52c0-.1,0-.19,0-.29V205a30.1,30.1,0,0,1,.09-3.61c0-.26.06-.52.11-.78a10.47,10.47,0,0,1,.59-2.28c1.8-4.65,3.53-5.37,2.32-.88s-1.94,11.84-.57,15.47,6.63,5.5,7.46,4.66-2.3-3.53-3.51-9.23.15-10.74,2.21-12.94,1.92-1,.79,4.66-.53,15.51,3.12,18.22,8,1.78,8.75.9-4.25-4-5.81-11,0-13.37,2.83-13.34,2.22,2.58,2.74,8.14,3,15.86,5.57,18.1,8.92,1,9.18-.27-4.91-4.69-7.23-11.57-1.19-10.77.53-8.4,5.28,16.3,7.46,17.73,13.5-1,13.5-1,1.35-9,.57-11-7.76-5.74-11.17-7.21c-4.31-1.86-2.27-2.25.5-1.94a25,25,0,0,1,11.74,5c.82-4.28.92-9.18-2.63-10.25a58.19,58.19,0,0,0-12.63-2.67c-4.61-.45-1.94-1.35-.25-1.64a26.37,26.37,0,0,1,12.77,1.12c-1.24-3.57-7.29-12.06-13.73-10.3s-12,5.57-14.12,6-.75-2.42,3.34-5.1,9.86-5.67,13.63-4.19c-2.18-3.43-4.68-6.7-11.19-3s-7.74,7.95-9.18,7.81,2.07-5.76,5.7-8.16a10.22,10.22,0,0,0-11,2.37,17.2,17.2,0,0,0-5.4,9.61c-4.8,1.84-10.41,6.54-11.55,12a13.34,13.34,0,0,0-.22,1.34,11.31,11.31,0,0,0-.08,1.52,7.24,7.24,0,0,0,0,.81,12.06,12.06,0,0,0,.27,1.95c0,.13.06.26.08.39s.06.19.08.29A11.76,11.76,0,0,0,130.89,205.77Z" style="fill:#e0e0e0"></path><path d="M130.89,205.77a8.17,8.17,0,0,0,.79,1,6.82,6.82,0,0,0,.55.53l.27.22a1.39,1.39,0,0,0,.46.26c.29.08.45-.07.54-.41a1.61,1.61,0,0,0,.06-.33c0-.13,0-.27,0-.42a1.93,1.93,0,0,1,0-.24v-.52c0-.1,0-.19,0-.29V205a30.1,30.1,0,0,1,.09-3.61c0-.26.06-.52.11-.78a10.47,10.47,0,0,1,.59-2.28c1.8-4.65,3.53-5.37,2.32-.88s-1.94,11.84-.57,15.47,6.63,5.5,7.46,4.66-2.3-3.53-3.51-9.23.15-10.74,2.21-12.94,1.92-1,.79,4.66-.53,15.51,3.12,18.22,8,1.78,8.75.9-4.25-4-5.81-11,0-13.37,2.83-13.34,2.22,2.58,2.74,8.14,3,15.86,5.57,18.1,8.92,1,9.18-.27-4.91-4.69-7.23-11.57-1.19-10.77.53-8.4,5.28,16.3,7.46,17.73,13.5-1,13.5-1c-7.16-12.52-23.88-29.72-43.07-33.63-4.8,1.84-10.41,6.54-11.55,12a13.34,13.34,0,0,0-.22,1.34,11.31,11.31,0,0,0-.08,1.52,7.24,7.24,0,0,0,0,.81,12.06,12.06,0,0,0,.27,1.95c0,.13.06.26.08.39s.06.19.08.29A11.41,11.41,0,0,0,130.89,205.77Z" style="fill:#e6e6e6"></path><path d="M140.66,184c17.87,4.91,32.85,18.54,43.07,33.63-8.38-15.78-25.07-30.69-43.07-33.63Z" style="fill:#e0e0e0"></path><g style="opacity:0.25"><path d="M140.66,184c17.87,4.91,32.85,18.54,43.07,33.63-8.38-15.78-25.07-30.69-43.07-33.63Z"></path></g><path d="M98,191.69c-1.82-2.27-9-5.11-13.46-2.86s-5.57,3.45-8,6.8-3.73,6.37-7.23,6.75c1.57-.74,4.07-3.08,6.48-8.22s7.22-9.9,12.33-9.5a13.5,13.5,0,0,1,10.15,6.4Z" style="fill:#e0e0e0"></path><path d="M98,191.69c-1.82-2.27-9-5.11-13.46-2.86s-5.57,3.45-8,6.8-3.73,6.37-7.23,6.75c1.57-.74,4.07-3.08,6.48-8.22s7.22-9.9,12.33-9.5a13.5,13.5,0,0,1,10.15,6.4Z" style="opacity:0.1"></path><path d="M90.67,180.56c-2.2-1.72-10.27-3.05-13.27-2.29s-12.55,5.51-15.06,10.93c4.14-8.84,7.22-12.06,13.28-13.33s13.46,2.84,14.3,3.54Z" style="fill:#e0e0e0"></path><path d="M86.72,175.23a18.23,18.23,0,0,1-2.32-10.62c.13-3.72,1.16-8.38-4-12.73,4.68,1.67,7.44,4.06,7.47,10.25s-1.2,12.79-.32,14.47Z" style="fill:#e0e0e0"></path><path d="M79,170c-3.67-1.4-6.3-2.32-10-1.95a39.7,39.7,0,0,1-11.08-.83c-3.68-.68-9.44,0-10.54,1.9.48-2.87,7.56-5.66,13.42-5.7s16,4.74,16,4.74Z" style="fill:#e0e0e0"></path><path d="M62.35,146.59A14.29,14.29,0,0,1,73.48,156c1.9,5.65,3.15,11.59,4.91,13.57,0,0-2.62-1-4.88-5.39s-2-8.8-4.5-11.79S65.62,148.41,62.35,146.59Z" style="fill:#e0e0e0"></path><path d="M62.35,146.59A14.29,14.29,0,0,1,73.48,156c1.9,5.65,3.15,11.59,4.91,13.57,0,0-2.62-1-4.88-5.39s-2-8.8-4.5-11.79S65.62,148.41,62.35,146.59Z" style="opacity:0.1"></path><path d="M61.14,157.32c-6.1-5.1-11.61-6.71-16-6.07s-6.42,2.25-9.59,4.83-5.44,4-6.46,3.95c1.56.56,4.57-.09,8.53-2.72a21.15,21.15,0,0,1,13.94-3A52.31,52.31,0,0,1,61.14,157.32Z" style="fill:#e0e0e0"></path><path d="M61.14,157.32c-6.1-5.1-11.61-6.71-16-6.07s-6.42,2.25-9.59,4.83-5.44,4-6.46,3.95c1.56.56,4.57-.09,8.53-2.72a21.15,21.15,0,0,1,13.94-3A52.31,52.31,0,0,1,61.14,157.32Z" style="opacity:0.1"></path><path d="M55.85,154.26A42.31,42.31,0,0,1,62,157.62q3.09,1.89,6.09,3.92c1.94,1.3,3.85,2.63,5.78,4S78,168.27,80,169.72a73.18,73.18,0,0,1,10.49,8.92A57.85,57.85,0,0,1,98,188.56a56.23,56.23,0,0,1,3.29,6.24,11.25,11.25,0,0,1,1.1,4.64.27.27,0,0,1,0,.16.25.25,0,0,1-.27.07c-.85-.16-1-1.32-1.27-2-.38-1-.85-2-1.31-2.94-.83-1.74-1.76-3.44-2.75-5.1a61.27,61.27,0,0,0-7-9.41,74.49,74.49,0,0,0-9.63-8.73c-3.71-2.89-7.47-5.73-11.32-8.45-2.1-1.48-4.22-2.95-6.38-4.35-1-.67-2.08-1.33-3.13-2-1.2-.73-2.42-1.43-3.56-2.25C55.69,154.43,55.76,154.22,55.85,154.26Z" style="fill:#e0e0e0"></path><path d="M115.4,149.36c-6,7.11-9.44,15.76-11.42,24.77a107.53,107.53,0,0,0-2.06,14.52c-.39,4.88-.62,9.79-.59,14.69a62.17,62.17,0,0,0,2,16.24c.21.73,1.51.38,1.29-.4-2.56-9.22-2.13-19.08-1.49-28.53s2.06-18.9,5.42-27.8a62,62,0,0,1,6.9-13.43S115.44,149.32,115.4,149.36Z" style="fill:#e0e0e0"></path><path d="M106.2,166.79c-5.3-.55-8.94-7.23-8.4-11,1.94,3.41,5.74,5.66,4.27,3.87-3.1-3.77-4.69-6.22-5.09-11.47a8.8,8.8,0,0,1,3.71-7.84,31.46,31.46,0,0,0,1.46,10.56c.56,1.62,2.48,5.78,1,.42-2.36-8.44-.21-12.44-.21-12.44s2.07-3.64,5.29-4.79c-3.49,5.73-2.26,13.13-1.78,15.87s2.55,4.77,1.64.29-.1-13.34,3.62-17a14.49,14.49,0,0,1,9.78-3.66,40.08,40.08,0,0,0-3.91,5.17,16.34,16.34,0,0,0-1.84,4.06c-.29,1.1-.33,3.93,1.66,2.6a3.14,3.14,0,0,0,1-1.25c1-1.95,1.28-4.15,2.14-6.14,1.43-3.33,4.52-4.55,7.93-4.93a26.83,26.83,0,0,1,5.45,0,12.2,12.2,0,0,1,2.53.33s2,9.89,1.09,12.86-11.8,5-13,6.73,7.88,3.15,14.37-.45c0,0,2.06,4.66-1.52,6.63s-12,2.35-16.13,1.15-2.44,2.07.76,3.13,9.87,1.82,13.69.19c0,0-1,6.33-3.62,8.62s-12-.78-14.71-2.89-3.7.72-1,2.82,10,4.76,13.22,4.35c-4.62,4.41-11.46,6.6-17.82,3.14C105,172.05,106.2,166.79,106.2,166.79Z" style="fill:#e0e0e0"></path><path d="M106.2,166.79c0,.19,0,.37-.07.55-.11,1.43.14,5.42,5.58,8.36,6.36,3.46,13.2,1.27,17.82-3.14-3.21.41-10.49-2.24-13.22-4.35s-1.74-4.92,1-2.82,12.13,5.17,14.71,2.89,3.62-8.62,3.62-8.62c-3.82,1.63-10.48.88-13.69-.19s-4.92-4.33-.76-3.13,12.55.83,16.13-1.15,1.52-6.63,1.52-6.63c-6.49,3.6-15.6,2.22-14.37.45s12.09-3.77,13-6.73-1.08-12.85-1.09-12.86C124.86,135.34,108.22,154.92,106.2,166.79Z" style="fill:#e6e6e6"></path><path d="M136.39,129.42c-6.94,4.29-12.77,10.19-18,16.43A80.55,80.55,0,0,0,109,159.68a34.87,34.87,0,0,0-2.75,7.11c2.28-13.57,18-31.41,30.19-37.37Z" style="fill:#e0e0e0"></path><g style="opacity:0.25"><path d="M136.39,129.42c-6.94,4.29-12.77,10.19-18,16.43A80.55,80.55,0,0,0,109,159.68a34.87,34.87,0,0,0-2.75,7.11c2.28-13.57,18-31.41,30.19-37.37Z"></path></g></g><g id="freepik--plants--inject-13"><path d="M393.57,234c-2.4,10.33-3.69,81.13-4.26,103.43h-2.4c0-12.18,1.93-69.73,2.16-73.72.57-10,.1-20.37,2.37-30.11,1.12-4.77,2.13-10.09,4-14.62,1.72-4.11,3.88-7.81,7.86-10.15a19.5,19.5,0,0,1,9.91-2.7,17.12,17.12,0,0,1,8.62,2.29,22.72,22.72,0,0,1,3,2.11c.48.4.93.85,1.42,1.24.09.06,1.08.94.95.95-.62.07-1.33-.66-1.8-1a20.25,20.25,0,0,0-3.92-2.1,18.72,18.72,0,0,0-9.38-1.65,15.23,15.23,0,0,0-9.18,3.64,17,17,0,0,0-3,3.78,29.11,29.11,0,0,0-2.59,5.4A127.26,127.26,0,0,0,393.57,234Z" style="fill:#e0e0e0"></path><path d="M399.61,230.94a12.24,12.24,0,0,0,.27,1.71,9.73,9.73,0,0,0,.29,1l.18.45a2,2,0,0,0,.35.61c.29.29.59.23.93-.12a3.85,3.85,0,0,0,.29-.35,5,5,0,0,0,.33-.48l.17-.27c.11-.18.23-.4.35-.62s.13-.22.19-.34l.41-.73a41.66,41.66,0,0,1,2.56-4.2c.21-.29.42-.58.64-.85a14.78,14.78,0,0,1,2.24-2.3c5.29-4.28,7.83-4,3.35.52S401.85,237.68,401,242.9s4.12,11,5.68,10.56-.33-5.73,2.09-13.3,7.43-12.6,11.37-13.82,2.95.1-2.22,6.06-11.12,18-8.63,23.66,8.24,7.52,9.75,7-2.32-7.63.52-16.9,9-15.86,12.38-13.87.88,4.55-2.25,11.48-7.22,20.78-5.66,25.19,9.85,7.28,11.05,5.89-2.64-8.87-.74-18.58,5.89-13.55,6.32-9.58-4.78,22.86-3.17,26,16.64,8,16.64,8,7.71-9.77,8.13-12.68-5.29-12-8.34-16.08c-3.84-5.11-1.16-4.2,1.91-2a34,34,0,0,1,10.53,13.83c3.87-4.52,7.29-10.24,3.82-13.91a79.62,79.62,0,0,0-13.14-11.72c-5.16-3.64-1.38-2.9.82-2.09a35.82,35.82,0,0,1,14.35,10c.94-5.06-.47-19.2-9.28-21.47s-18-1.55-20.76-2.47.74-3.37,7.4-3.77,15.51-.05,19,4.26c-.26-5.54-1-11.09-11.21-11.13s-14.54,4.16-16.15,3,6.34-5.42,12.27-5.8c-4.11-4.73-9.11-5.93-14.66-4.65a23.54,23.54,0,0,0-12.89,7.72c-6.92-1.07-16.73.7-21.77,6.36a17.13,17.13,0,0,0-1.16,1.45,14.34,14.34,0,0,0-1.13,1.74,10.11,10.11,0,0,0-.52,1,15.89,15.89,0,0,0-1,2.48c-.06.18-.11.36-.16.53s-.07.26-.11.39A15.94,15.94,0,0,0,399.61,230.94Z" style="fill:#e0e0e0"></path><path d="M399.61,230.94a10.74,10.74,0,0,0,.27,1.71,7.73,7.73,0,0,0,.29,1c.05.15.11.3.17.45a2,2,0,0,0,.36.61c.29.29.59.23.93-.12a3.85,3.85,0,0,0,.29-.35,5,5,0,0,0,.33-.48l.17-.27c.11-.18.23-.4.35-.62s.13-.22.19-.34l.41-.73a41.66,41.66,0,0,1,2.56-4.2c.21-.29.42-.58.64-.85a14.78,14.78,0,0,1,2.24-2.3c5.29-4.28,7.83-4,3.35.52S401.85,237.68,401,242.9s4.12,11,5.68,10.56-.33-5.73,2.09-13.3,7.43-12.6,11.37-13.82,2.95.1-2.22,6.06-11.12,18-8.63,23.66,8.24,7.52,9.75,7-2.32-7.63.52-16.9,9-15.86,12.38-13.87.88,4.55-2.25,11.48-7.22,20.78-5.66,25.19,9.85,7.28,11.05,5.89-2.64-8.87-.74-18.58,5.89-13.55,6.32-9.58-4.78,22.86-3.17,26,16.64,8,16.64,8c0-19.67-8.15-51.33-28.23-68.94-6.92-1.07-16.73.7-21.77,6.36a17.13,17.13,0,0,0-1.16,1.45,14.34,14.34,0,0,0-1.13,1.74,10.11,10.11,0,0,0-.52,1,15.89,15.89,0,0,0-1,2.48c-.06.18-.11.36-.16.53s-.07.26-.11.39A15.43,15.43,0,0,0,399.61,230.94Z" style="fill:#e6e6e6"></path><path d="M425.92,211.74c17.84,17.9,26.35,44.16,28.23,68.94.76-24.34-8.9-53.28-28.23-68.94Z" style="fill:#e0e0e0"></path><g style="opacity:0.25"><path d="M425.92,211.74c17.84,17.9,26.35,44.16,28.23,68.94.76-24.34-8.9-53.28-28.23-68.94Z"></path></g><path d="M375.43,337.46h-1.75c3.11-21.65,7.93-111.84,6.54-126.42a76.49,76.49,0,0,0-2-11.94,33.87,33.87,0,0,0-3-8.15,13.49,13.49,0,0,0-2-2.85c-3.84-4.1-9.53-5.15-14.83-4,1.71-1.45,7.35-1.61,10.62-.34a13.8,13.8,0,0,1,6.72,5.12A30,30,0,0,1,380,198.3a77.07,77.07,0,0,1,2.13,12.64,151.12,151.12,0,0,1,.15,26.14C381.73,243.93,377.83,320.8,375.43,337.46Z" style="fill:#e0e0e0"></path><path d="M370.74,202.24c0-.1.05-.19.08-.29s.06-.26.08-.39a12.06,12.06,0,0,0,.27-1.95,7.24,7.24,0,0,0,0-.81,11.31,11.31,0,0,0-.08-1.52,13.34,13.34,0,0,0-.22-1.34c-1.14-5.44-6.75-10.14-11.55-12a17.2,17.2,0,0,0-5.4-9.61,10.22,10.22,0,0,0-11-2.37c3.63,2.4,7.14,8,5.7,8.16s-2.67-4.12-9.18-7.81-9-.42-11.19,3c3.77-1.48,9.55,1.51,13.63,4.19s5.43,5.51,3.34,5.1-7.69-4.24-14.12-6-12.49,6.73-13.73,10.3a26.37,26.37,0,0,1,12.77-1.12c1.69.29,4.36,1.19-.25,1.64a58.19,58.19,0,0,0-12.63,2.67c-3.55,1.07-3.45,6-2.63,10.25a25,25,0,0,1,11.74-5c2.77-.31,4.81.08.5,1.94-3.41,1.47-10.38,5.2-11.17,7.21s.57,11,.57,11,11.34,2.41,13.5,1,5.73-15.36,7.46-17.73,2.86,1.52.53,8.4-7.5,10.24-7.23,11.57,6.59,2.5,9.18.27,5-12.55,5.57-18.1-.13-8.1,2.74-8.14,4.4,6.4,2.83,13.34-6.58,10.07-5.81,11,5.1,1.8,8.75-.9S358,205.7,356.91,200s-1.28-6.87.79-4.66,3.43,7.23,2.21,12.94-4.34,8.4-3.51,9.23,6.08-1,7.46-4.66.65-11-.57-15.47.52-3.77,2.32.88a10.47,10.47,0,0,1,.59,2.28c.05.26.08.52.11.78a30.1,30.1,0,0,1,.09,3.61v.61c0,.1,0,.19,0,.29v.52a1.93,1.93,0,0,1,0,.24c0,.15,0,.29,0,.42a1.61,1.61,0,0,0,.06.33c.09.34.25.49.54.41a1.55,1.55,0,0,0,.45-.26l.28-.22a6.82,6.82,0,0,0,.55-.53,10.39,10.39,0,0,0,.79-1A11.76,11.76,0,0,0,370.74,202.24Z" style="fill:#e0e0e0"></path><path d="M370.74,202.24c0-.1.05-.19.08-.29s.06-.26.08-.39a12.06,12.06,0,0,0,.27-1.95,7.24,7.24,0,0,0,0-.81,11.31,11.31,0,0,0-.08-1.52,13.34,13.34,0,0,0-.22-1.34c-1.14-5.44-6.75-10.14-11.55-12-19.19,3.91-35.91,21.11-43.07,33.63,0,0,11.34,2.41,13.5,1s5.73-15.36,7.46-17.73,2.86,1.52.53,8.4-7.5,10.24-7.23,11.57,6.59,2.5,9.18.27,5-12.55,5.57-18.1-.13-8.1,2.74-8.14,4.4,6.4,2.83,13.34-6.58,10.07-5.81,11,5.1,1.8,8.75-.9S358,205.7,356.91,200s-1.28-6.87.79-4.66,3.43,7.23,2.21,12.94-4.34,8.4-3.51,9.23,6.08-1,7.46-4.66.65-11-.57-15.47.52-3.77,2.32.88a10.47,10.47,0,0,1,.59,2.28c.05.26.08.52.11.78a30.1,30.1,0,0,1,.09,3.61v.61c0,.1,0,.19,0,.29v.52a1.93,1.93,0,0,1,0,.24c0,.15,0,.29,0,.42a1.61,1.61,0,0,0,.06.33c.09.34.25.49.54.41a1.39,1.39,0,0,0,.46-.26l.27-.22a6.82,6.82,0,0,0,.55-.53,8.17,8.17,0,0,0,.79-1A11.41,11.41,0,0,0,370.74,202.24Z" style="fill:#e6e6e6"></path><path d="M359.34,184c-17.87,4.91-32.85,18.54-43.07,33.63,8.38-15.78,25.07-30.69,43.07-33.63Z" style="fill:#e0e0e0"></path><g style="opacity:0.25"><path d="M359.34,184c-17.87,4.91-32.85,18.54-43.07,33.63,8.38-15.78,25.07-30.69,43.07-33.63Z"></path></g><path d="M402,191.69c1.82-2.27,9-5.11,13.46-2.86s5.57,3.45,8.05,6.8,3.73,6.37,7.23,6.75c-1.57-.74-4.07-3.08-6.48-8.22s-7.22-9.9-12.33-9.5a13.5,13.5,0,0,0-10.15,6.4Z" style="fill:#e0e0e0"></path><path d="M409.33,180.56c2.2-1.72,10.27-3.05,13.27-2.29s12.55,5.51,15.06,10.93c-4.14-8.84-7.22-12.06-13.28-13.33s-13.46,2.84-14.3,3.54Z" style="fill:#e0e0e0"></path><path d="M413.28,175.23a18.23,18.23,0,0,0,2.32-10.62c-.13-3.72-1.16-8.38,4-12.73-4.68,1.67-7.44,4.06-7.47,10.25s1.2,12.79.32,14.47Z" style="fill:#e0e0e0"></path><path d="M413.28,175.23a18.23,18.23,0,0,0,2.32-10.62c-.13-3.72-1.16-8.38,4-12.73-4.68,1.67-7.44,4.06-7.47,10.25s1.2,12.79.32,14.47Z" style="opacity:0.1"></path><path d="M421,170c3.67-1.4,6.3-2.32,10-1.95a39.7,39.7,0,0,0,11.08-.83c3.68-.68,9.44,0,10.54,1.9-.48-2.87-7.56-5.66-13.42-5.7s-16,4.74-16,4.74Z" style="fill:#e0e0e0"></path><path d="M421,170c3.67-1.4,6.3-2.32,10-1.95a39.7,39.7,0,0,0,11.08-.83c3.68-.68,9.44,0,10.54,1.9-.48-2.87-7.56-5.66-13.42-5.7s-16,4.74-16,4.74Z" style="opacity:0.1"></path><path d="M437.65,146.59A14.29,14.29,0,0,0,426.52,156c-1.9,5.65-3.15,11.59-4.91,13.57,0,0,2.62-1,4.88-5.39s2-8.8,4.5-11.79S434.38,148.41,437.65,146.59Z" style="fill:#e0e0e0"></path><path d="M438.86,157.32c6.1-5.1,11.61-6.71,16-6.07s6.42,2.25,9.59,4.83,5.44,4,6.46,3.95c-1.56.56-4.57-.09-8.53-2.72a21.15,21.15,0,0,0-13.94-3A52.31,52.31,0,0,0,438.86,157.32Z" style="fill:#e0e0e0"></path><path d="M444.15,154.26a42.31,42.31,0,0,0-6.12,3.36q-3.09,1.89-6.09,3.92c-1.94,1.3-3.85,2.63-5.78,4s-4.12,2.78-6.14,4.23a73.18,73.18,0,0,0-10.49,8.92,57.85,57.85,0,0,0-7.55,9.92,56.23,56.23,0,0,0-3.29,6.24,11.25,11.25,0,0,0-1.1,4.64.27.27,0,0,0,0,.16.25.25,0,0,0,.27.07c.85-.16,1-1.32,1.27-2,.38-1,.85-2,1.31-2.94.83-1.74,1.76-3.44,2.75-5.1a61.27,61.27,0,0,1,7-9.41,74.49,74.49,0,0,1,9.63-8.73c3.71-2.89,7.47-5.73,11.32-8.45,2.1-1.48,4.22-2.95,6.38-4.35,1-.67,2.08-1.33,3.13-2s2.42-1.43,3.56-2.25C444.31,154.43,444.24,154.22,444.15,154.26Z" style="fill:#e0e0e0"></path><path d="M384.6,149.36c6,7.11,9.44,15.76,11.42,24.77a107.53,107.53,0,0,1,2.06,14.52c.39,4.88.62,9.79.59,14.69a62.17,62.17,0,0,1-2,16.24c-.21.73-1.51.38-1.29-.4,2.56-9.22,2.13-19.08,1.49-28.53s-2.06-18.9-5.42-27.8a62,62,0,0,0-6.9-13.43S384.56,149.32,384.6,149.36Z" style="fill:#e0e0e0"></path><path d="M393.8,166.79c5.3-.55,8.94-7.23,8.4-11-1.94,3.41-5.74,5.66-4.27,3.87,3.1-3.77,4.69-6.22,5.09-11.47a8.8,8.8,0,0,0-3.71-7.84,31.46,31.46,0,0,1-1.46,10.56c-.56,1.62-2.48,5.78-1,.42,2.36-8.44.21-12.44.21-12.44s-2.07-3.64-5.29-4.79c3.49,5.73,2.26,13.13,1.78,15.87s-2.55,4.77-1.64.29.1-13.34-3.62-17a14.49,14.49,0,0,0-9.78-3.66,40.08,40.08,0,0,1,3.91,5.17,16.34,16.34,0,0,1,1.84,4.06c.29,1.1.33,3.93-1.66,2.6a3.14,3.14,0,0,1-1-1.25c-1-1.95-1.28-4.15-2.14-6.14-1.43-3.33-4.52-4.55-7.93-4.93a26.83,26.83,0,0,0-5.45,0,12.2,12.2,0,0,0-2.53.33s-2,9.89-1.09,12.86,11.8,5,13,6.73-7.88,3.15-14.37-.45c0,0-2.06,4.66,1.52,6.63s12,2.35,16.13,1.15,2.44,2.07-.76,3.13-9.87,1.82-13.69.19c0,0,1,6.33,3.62,8.62s12-.78,14.71-2.89,3.7.72,1,2.82-10,4.76-13.22,4.35c4.62,4.41,11.46,6.6,17.82,3.14C395,172.05,393.8,166.79,393.8,166.79Z" style="fill:#e0e0e0"></path><path d="M393.8,166.79c0,.19.05.37.07.55.11,1.43-.14,5.42-5.58,8.36-6.36,3.46-13.2,1.27-17.82-3.14,3.21.41,10.49-2.24,13.22-4.35s1.74-4.92-1-2.82-12.13,5.17-14.71,2.89-3.62-8.62-3.62-8.62c3.82,1.63,10.48.88,13.69-.19s4.92-4.33.76-3.13-12.55.83-16.13-1.15-1.52-6.63-1.52-6.63c6.49,3.6,15.6,2.22,14.37.45s-12.09-3.77-13-6.73,1.08-12.85,1.09-12.86C375.14,135.34,391.78,154.92,393.8,166.79Z" style="fill:#e6e6e6"></path><path d="M363.61,129.42c6.94,4.29,12.77,10.19,18,16.43a80.55,80.55,0,0,1,9.46,13.83,34.87,34.87,0,0,1,2.75,7.11c-2.28-13.57-18-31.41-30.19-37.37Z" style="fill:#e0e0e0"></path><g style="opacity:0.25"><path d="M363.61,129.42c6.94,4.29,12.77,10.19,18,16.43a80.55,80.55,0,0,1,9.46,13.83,34.87,34.87,0,0,1,2.75,7.11c-2.28-13.57-18-31.41-30.19-37.37Z"></path></g></g></g><g id="freepik--Water--inject-13"><g id="freepik--water--inject-13"><ellipse cx="250" cy="349.08" rx="203.15" ry="117.28" style="fill:#263238"></ellipse><ellipse cx="250" cy="349.08" rx="203.15" ry="117.28" style="fill:#fff;opacity:0.6000000000000001"></ellipse><g style="opacity:0.2"><path d="M407.11,422.07c-3.74.28-7.32.11-11,.23a75.77,75.77,0,0,0-10.82,1.11,16.71,16.71,0,0,0-6.22,2c-2.28,1.61-1.73,3.63-.49,5.13,1.74,2.18,4.54,4,6.75,6q3.12-1.62,6.16-3.32c-1-1.48-1.7-3-2.62-4.05-.26-.27-.51-.56-.37-.88.24-.55,1.67-1.11,3.28-1.46a47.56,47.56,0,0,1,5.14-.7q3.58-.33,7.17-.62c1.8-1.21,3.54-2.44,5.25-3.68C408.59,421.94,407.85,422,407.11,422.07Z" style="fill:#fff;opacity:0.7000000000000001"></path><path d="M434.38,368.21a12.88,12.88,0,0,0-5.29,6.49,15.71,15.71,0,0,0-1,7.83c.35,2.69,1.44,5.43-.76,8.19-2.62,3.28-9.43,5.58-15.45,5.89a34.66,34.66,0,0,1-15.52-2.79,18.34,18.34,0,0,1-6.57-4.2c-3.36-3.77-1.86-9.16,3.7-13.36,4.72-3.58,11.8-6.16,16.55-9.72,8.26-6.24,7.45-13.82,12.8-20.7a6,6,0,0,1,3.08-2.25c2.3-.69,4.62.13,5.47,1.22s.9,2.43,1.89,3.48c1.81,1.86,6.45,2.35,10.8,1.72a43.76,43.76,0,0,0,9.07-2.51c0-1.48-.11-2.95-.24-4.42h-.05L446.11,345a14.2,14.2,0,0,1-3.08.65,8.17,8.17,0,0,1-3.27-.58A14.48,14.48,0,0,1,434,341.5c-2-2.28-2.48-5-2.89-7.74s-.83-5.46-2.86-7.74-5.95-4-11-3.94c-2.75.06-5.75.66-8.19.22s-3.57-1.77-3.72-3.21.58-3,1.32-4.46c1.07-2.19,2.08-4.55.6-6.33s-5-2.51-6.41-4.21c-1.77-2,.24-5.2,4.34-6.86a8,8,0,0,1,1.93-.54,12.18,12.18,0,0,1,2.42.07,20.31,20.31,0,0,0,11.64-2.84s2.23-1.41,5.35-3q-1.77-1.79-3.64-3.54l-18.5-10.15c-8-.76-16.31-1.36-22.55-2.91-16.57-4.1-13.62-13.59-29.21-18.05a60.77,60.77,0,0,1-7.18-2.11,7.16,7.16,0,0,1-3.56-3.28c-1.32-2.24-2.21-4.56-1.71-7-8.36-2.39-16.94-4.42-25.68-6.1-.72.19-1.47.38-2.26.53-4.41.87-8.66,1.09-12.57,2.4a51.85,51.85,0,0,0-9.13,4.13c-2.77,1.56-5.46,3.29-8.91,4.24a28.07,28.07,0,0,1-10.47.62c-6.05-.7-10.87-2.64-16-4.22a42.76,42.76,0,0,0-17.8-2.07c-4.33.51-8.77,1.87-12.89,1.74a14.7,14.7,0,0,1-9.83-4.12c-2.22-2-4.23-4.22-8.12-5.24a31.36,31.36,0,0,0-4.69-.72Q193.29,236.33,185,238a3.37,3.37,0,0,1,.49,1.5c0,.57-.13,1.18-1.15,1.72a32.53,32.53,0,0,1-5.38,1.62c-5.21,1.42-8,3.54-9.22,5.49s-1.29,3.87-2.65,5.83c-1.18,1.69-4.15,3.68-9.33,4.44a32.39,32.39,0,0,1-9.55-.14c-2.72-.43-4.88-1.09-7.46-1.57a68.48,68.48,0,0,0-14.23-.89,212,212,0,0,0-20.14,10.19,176.06,176.06,0,0,0-15.62,10.13,31.1,31.1,0,0,0,7,3.92c2.47,1,5.4,2,5.21,3.45-.14,1.2-2.38,2.45-4.57,3.61a19.83,19.83,0,0,1-6.58,2.39c-4.27.72-8.2,0-11.84-.46-1.32-.17-2.76-.29-4.27-.37q-2.06,2-4,4a21.91,21.91,0,0,1,3.82.41c6.32,1.32,8.44,5.34,10.23,9s4.32,7.61,10.93,8.63c5,.76,11.19-.38,16.5.05,6.54.54,8.9,3.2,9.79,5.23,1.23,2.81-1.53,6-3,8.95a7.44,7.44,0,0,0,.08,6.53c1.12,2.69,5.56,6.81.44,8.51-3.23,1.07-4.32-2.21-6.25-3.48-3.42-2.23-9.69-2.79-15.74-1.93a52.76,52.76,0,0,0-16.72,5.53,52,52,0,0,1-7.64,3.68c-7.25,2.48-16.47.69-17.27-3.34-.49-2.59,1.92-5.48,1.88-8.14,0-3.26-3.68-5.6-7.47-7.75q-1.14,3.12-2,6.26a3.55,3.55,0,0,1,.23.31c2.16,3.37-1.94,8.3,1.85,11.08,1,.76,2.62,1.44,2.1,2.51-.36.78-1.74,1.41-3.15,1.73-1.13.26-2.29.37-3.43.52,0,1.61,0,3.22,0,4.83a96.54,96.54,0,0,1,16.43-2.29,22.52,22.52,0,0,1,7.13.23c3.38.95,3.69,3.51,4.08,5.73,1.14,6.33,5.53,12.07,12.59,16.44a23.3,23.3,0,0,0,7,3.05c4.83,1.17,11.26,1,14.88,3,4.93,2.72,2.3,7.91-.56,12.27a7.55,7.55,0,0,1-2.69,2.72c-3,1.67-7.47,1.36-10.46.46a18.34,18.34,0,0,1-5.91-2.92c-1.68-1.3-2.83-2.87-4.76-4.06-3.69-2.23-10.29-2.87-16.53-1.59A16.13,16.13,0,0,0,63,386.78c-1.38.88-2.12,2-3.42,2.91a.41.41,0,0,1-.11.07q1.65,2.58,3.51,5.11a23.56,23.56,0,0,1,14.42-4.78c13.36.38,8.92,7.74,23.14,8,3.22.06,6.72-.09,9.59.23,4.24.47,6.24,1.84,10.28,2.39,4.83.66,11.11.24,16.85-.19,6.29-.48,13-1,18.19-.35,2.84.36,6,1.24,6.81,2.23,2.16,2.55,2.81,5.52,1.2,8.44a8.48,8.48,0,0,1-2.13,2.73c-3.51,2.77-10.61,3-15.17,1.88s-8-3.23-13.11-3.8a38.7,38.7,0,0,0-15.31,1.93,70,70,0,0,0-13.3,6.06,23.08,23.08,0,0,1-5.31,2.44,20,20,0,0,1-6.36.52c-.37,0-.73-.06-1.1-.09q6.84,4.91,14.73,9.48a221.59,221.59,0,0,0,30.84,14.63c8.11.82,16,1.68,19.17,4.09a3.8,3.8,0,0,1,1.59,2.93q5.94,1.74,12,3.24c.65-1.71,2.48-3.46,3-5.19.64-2.35-1.25-4.38-3.93-5.82-12.93-7-40.41-2.4-52.91-9.59a15.33,15.33,0,0,1-5.5-5.37c-1.59-2.56-2.18-5.85,1.54-8.46,2.62-1.82,6.77-2.83,10.56-3.05a56.29,56.29,0,0,1,10.75.65l14.48,1.83c4.8.59,11,.92,14.9-1.5,3.75-2.35,3.47-6.31,8.43-7.61a12.82,12.82,0,0,1,6.7.34c10.89,3.12,15.38,10.11,23.27,15.13a22.12,22.12,0,0,0,10.72,3.62c2.73.18,5.73-.12,8.51,0s5.52.87,5.91,2.36c.55,2.19-3.85,4.34-6.93,6.31-6,3.79-8.23,8.63-13.33,12.72a40.32,40.32,0,0,1-17.28,7.65q6,1.1,12,2a45.89,45.89,0,0,0,7.21-4.9c2.41-2,5.21-4.55,9.21-4.88s6.1,1.91,8.38,3.46c4.57,3.08,13.66,3.77,21.67,1.66,3.51-.94,6.85-2.35,10.47-2.79a18.24,18.24,0,0,1,9.51,1.32c2,.91,2.7,2,4.47,3a27.27,27.27,0,0,1,4.83,3.15,15.47,15.47,0,0,1,2.23,2.3q6-.49,11.86-1.19A33.23,33.23,0,0,1,278,458.11c-3.49-2.45-6.75-5.08-11.44-6.86-4-1.51-9.74-2.28-14.75-.49-2.33.82-4.1,2.08-6.33,3-6.87,2.86-16,1.43-19-2s-1.12-8.13,2.2-12.33a47.51,47.51,0,0,1,10.19-9.21c3.93-2.7,8.69-5.34,10.49-8.45,2.28-3.87-.53-7.4,0-11.22a3.51,3.51,0,0,1,2.26-2.9,12.63,12.63,0,0,1,3.53-.76l15-1.7c2.88-.34,5.95-.66,8.35-.08a9.77,9.77,0,0,1,4.74,3c7,6.65,17.89,11.78,31.11,14.68,3.15.69,6.57,1.31,8.46,2.81s1.39,4.21-2,5.5c-2.62,1-6.17.85-9.12,1.55-3.86.91-3.75,2-3.21,3,1.44,2.88,3.84,5.63,5.91,8.41,2.26,3,4.89,6.21,3.25,9.63a17,17,0,0,1-6.13,7.2q7.74-1.41,15.3-3.19c.79-.95,2.09-1.83,4.8-2.12a10.73,10.73,0,0,1,3.21.12q4.92-1.31,9.73-2.76c-.49-.3-1-.6-1.43-.92-6.84-4.69-10-11.1-9-17.89.23-1.5.67-3,.09-4.4-.47-1.15-1.62-2.14-1.51-3.37.14-2,3.55-3.93,6.6-5.51q5.37-2.71,10.75-5.47c6.74-3.45,14.24-7.76,13.82-12.12-.22-2.41-2.94-4.24-6.06-5.63a8.16,8.16,0,0,1-3-1.73c-.62-.74-.41-1.85.93-2.55,2.15-1.12,5-.41,7.3,0a26.88,26.88,0,0,0,12.19-1,25.12,25.12,0,0,1,3.61-1.08,8.89,8.89,0,0,1,6.11,1,17.33,17.33,0,0,1,3.12,3.11c3.66,3.81,11.18,6.11,19.77,6h2.53c5.47.53,10.65,1.65,14.08,3.8a9.38,9.38,0,0,1,2.18,1.81c2.65-2.7,5.12-5.44,7.37-8.22-1-1.9,1.06-4.1,2.2-6.19,3.33-6.23-1.65-12,2.46-18.24,1.11-1.66,3.54-3.61,8.53-4.45a26.55,26.55,0,0,1,2.81-.32q.78-2.55,1.37-5.12C445.56,364.28,438.76,365.42,434.38,368.21ZM342,261.12c8-.75,13.74,2.52,16.83,6.07s4.86,7.73,10.17,10.25c6.1,2.91,15.62,3.05,24.33,3.58s17.94,1.88,21,6.13c1,1.41,1,3.45-1.62,4.67a11.7,11.7,0,0,1-7.12.49c-2.08-.47-3.77-1.31-6-1.71a8.37,8.37,0,0,0-3.24,0,4.4,4.4,0,0,0-3.58,3.08c-.19,1.19.21,2.32-.36,3.52-1.3,2.8.21,5.57-3.63,7.88-2.73,1.63-6.79,2.37-10.31,2.36a47,47,0,0,1-9.73-1.3l-20.23-4.23c-4.86-1-10.23-2.42-10.54-5.44s4.28-6.15,3.32-8.9c-.7-2.07-4.34-3.12-8-3.63s-7.75-.69-10.75-1.78c-4.53-1.67-5.74-5.29-3.84-8.69s6.46-6.54,11.73-9A36.11,36.11,0,0,1,342,261.12ZM222,384.29c1.63,1.55,1.22,3.86-2.11,5.1s-8.11.72-11-.11c-4.14-1.19-6.48-3.61-7.27-6.27s-.06-5.57,1-8.44c1.53-4,3.85-8.33,1.3-11.64a14.05,14.05,0,0,0-5.34-3.55,55.92,55.92,0,0,0-14.84-3.92c-5.54-.74-11.66-.9-16.64-2.2-6-1.57-10.07-5-9.15-9.1s7.6-8.47,15.05-9.29c6.29-.69,12.93.9,18.42-1.5,3.76-1.65,5.54-4.76,9.85-5.68a10.74,10.74,0,0,1,7.51,1.2c2.63,1.54,4,3.72,3.88,6.08s-1.66,4.74-2.34,7.1a13.18,13.18,0,0,0,.23,7.22,9.56,9.56,0,0,0,7.47,7.21c6.73,1.64,17.64-.91,22.25,2.12,3.25,2.12,1.3,5.91-2.18,8.81s-8.29,5.37-11.55,8.32a15.64,15.64,0,0,0-4.76,7.6A1.19,1.19,0,0,0,222,384.29Zm-35.71-63.61c-5-3.5-7.55-8.1-7.34-13.05a10.81,10.81,0,0,1,3.44-7.62,21.11,21.11,0,0,1,11.48-5.24A19.54,19.54,0,0,1,207,297.44c3,2,4.82,4.48,7.41,6.65a32.08,32.08,0,0,0,11.22,5.76,36.46,36.46,0,0,0,13.55,1.63c6.28-.46,12.45-2.69,18.74-3.63,6.61-1,13.31-.52,18.09,1.3,3.88,1.5,6.52,4.26,4.39,7.18-3.16,4.31-12.54,6.51-19.63,9.4-.38.15-1.65.42-1.65.42a82.09,82.09,0,0,1-18.39,2.48c-4.26.08-9-.08-12.69,1.66a27.64,27.64,0,0,1-3.08,1.54c-3.41,1.17-6.85-.36-7.63-2.18s-.22-4-1.82-5.54c-2.31-2.25-8.33-2.4-13.65-1.63a46,46,0,0,1-7.71.86A13.79,13.79,0,0,1,186.27,320.68Zm48.92,29.65c-3.46-.15-7.18,0-10.33-.54-4.78-.84-7.8-3.42-7.46-6.41s4-6.22,9.09-8A58.43,58.43,0,0,1,239,333L273,329c6.5-.76,13.23-1.56,19.24-3.66,2.57-.9,4.94-2,7.53-2.88,3.93-1.31,6.38-2.22,10.42-2.16,0,0,1.41.13,1.82.23,4.41,1,6.86,3.62,6.83,6.43s-3.23,6.08-8.17,7.69a44.4,44.4,0,0,1-7.89,1.53L290,337.9a100.06,100.06,0,0,0-17,3.24c-5.4,1.7-10.35,4.51-11.75,7.65-.8,1.8-.85,4-3.87,5.1s-6.07-.07-8.46-1A43.62,43.62,0,0,0,235.19,350.33Zm32-.85a3.15,3.15,0,0,1,1.17-1.2c3.54-2.5,8.94-4.07,14.13-5s10.5-1.34,15.72-2.22a80.6,80.6,0,0,0,25.81-8.9c1.27-1.25,2.19-2.72,4-3.81,3.54-2.22,9.51-2.27,13.14-1s5.75,3.38,8.66,5c3.44,2,8,3.27,12.05,4.83s7.87,3.54,9.13,6.32-.65,6.54-5.66,8.61c-3.06,1.26-6.75,1.73-9.9,2.9-8.15,3-10.87,9.86-19.68,11.8-6.85,1.5-12.72-1.19-15.05-4.37s-2.68-7-6.2-9.75a11.27,11.27,0,0,0-7-2.21c-4.78,0-9.3,2.42-13.65,4.19-4.66,1.9-10.33,3.29-15.15,2.79-5.76-.6-8.62-3.65-10.94-6.47C267.35,350.52,267,350,267.17,349.48Zm77.3-29.61c-5.94.36-12.43,3.5-17.59,2.55-5.49-1-4.69-6-9.93-7.22-3.35-.82-8,.22-11.69,1.67s-6.87,3.31-10.68,4.6-10.37,2.92-13.26,2.4c-1.58-.3-1.42-1.32-1.25-1.68,1.47-3.29,10.62-5.63,10.93-8.86.12-1.26-1-2.31-2.13-3.24-3.91-3.1-9.12-5.69-11.53-9.33s-1.18-8.88,5.53-11.88c6.47-2.91,15.14-2.43,20.54-.34S312,294,316,296.85c8,5.54,20,9.17,33.73,10.23,3.71.29,7.56.39,11.1.9a28.26,28.26,0,0,1,8.43,2.41c2.87,1.4,4.89,3.43,4.56,5.8s-3.52,5.08-7.84,6C358.05,324,352.45,319.37,344.47,319.87Zm-123-66.57c5-4.49,15.78-7.21,23.49-6,7.89,1.29,11.56,5.91,19,7.63a36.26,36.26,0,0,0,16.73-.61c6.17-1.66,11.22-4.62,16.49-7.21s11.66-5,17.91-5.09a27.73,27.73,0,0,1,7.12,1c5.34,1.4,9.71,3.82,11.08,7.1s-.57,7.46-5.73,10.35c-1.78,1-3.83,1.81-5.72,2.74-6.36,3.1-10.6,7.51-11.26,11.67s2.32,7.95,7.85,10c3.4,1.3,8.24,1.39,11.75,2.6,3.72,1.26,1.72,3.58,1.17,5.66a2.07,2.07,0,0,1-.93,1.38c-1.3.81-3.44.61-4.85.2-10.7-3.14-13.27-12.06-25.95-13.12-4.32-.36-9.27.29-13.26-.44-4.74-.88-7.07-3.49-9.62-5.77A15.53,15.53,0,0,0,265,271.23c-6.5.36-12.16,4.11-18.67,5.36a27.81,27.81,0,0,1-18.07-2.86c-5.59-2.94-9.7-6.84-10.47-11.46C217.32,259.38,218.25,256.15,221.46,253.3Zm-.06,23.81,10,5.65a11,11,0,0,0,4.87,1.71c5.09.39,9.86-3,14.84-4.83a27,27,0,0,1,12.79-1.42,23.79,23.79,0,0,1,8.77,3.13c2.77,1.73,3.82,5.67,1.66,8.24s-5.67,5.1-6,7.7c-.18,1.37.51,2.8-1,4.08-2.35,1.93-7.13,1.64-11,2.29-4.05.69-7.51,2.64-11.46,3.61A24.06,24.06,0,0,1,229.72,306c-3.76-1.77-5.9-4.37-8-6.9s-4.27-5.13-8.07-6.88c-3.21-1.47-7.48-2.3-10.05-4.12-3.94-2.82-2.39-7.89,3.4-11.11a16.48,16.48,0,0,1,6.85-2.08A13.19,13.19,0,0,1,221.4,277.11ZM117.51,261.39a49.43,49.43,0,0,1,23.35.24c6.36,1.6,12.81,4.2,20.55,2.59,7.22-1.48,11.71-5.89,14.82-9.79s6.62-8.3,13.47-10.51a27.75,27.75,0,0,1,13.54-.75c3.67.79,6.5,2.09,8.08,3.59,1.33,1.27,1.77,2.69,1.05,4.05-.8,1.52-2.31,3-3.35,4.47-1.85,2.59-2.32,5.3-1.4,7.68,1,2.56,3.59,5.09,1.3,7.84s-8.86,4.42-11.59,7.21-.54,6.05-2.82,9.06-9.61,5.12-14.31,4.05-5.76-4.31-9.65-5.94c-3.34-1.4-8.71-1.4-13.26,0-1.5.46-2.88,1-4.42,1.39-5.52,1.26-9.9-1-13.35-2.87A26.59,26.59,0,0,0,125.74,280c-2.25,0-4.6.37-6.8.28a20.83,20.83,0,0,1-7.18-1.81c-3.56-1.44-7.08-3.15-7.9-5.69C102.5,268.55,109.43,263.42,117.51,261.39Zm-7.42,44a48.79,48.79,0,0,1-6.21-.15c-6.82-.92-8.23-5.88-5.12-10,2.89-3.76,8.77-7.13,15.55-8.88s14.22-1.84,19.68-.24a36.29,36.29,0,0,1,8.87,4.35c2.9,1.73,7.26,3.47,11.91,2.05,2.74-.83,4.94-2.63,7.79-2.8a7.22,7.22,0,0,1,3.91.92c3.37,1.72,5.49,4.16,5.95,6.91.85,5-3.52,10.52-2.93,15.53.44,3.83,3.81,7.1,8.78,9.33,1.84.84,4,1.56,5.24,2.69s1.5,2.84-.35,4.17c-2.07,1.48-5.71,1.86-8.66,1.8s-6-.39-9,.3c-3.78.88-7.69,3.91-9.65,5.44-.45,2.37-1,4.82-3,7.13a16.82,16.82,0,0,1-10.41,4.93c-6.4.6-10.05-2.68-11.68-5.78-3.17-6-3.46-12.83-.9-19.68,1.4-3.67,3.61-7.54,2.22-10.85C130,307.57,120,305.37,110.09,305.43ZM109.85,374c-10.89-1-16.76-6.4-21.67-11.47-3.33-3.45-6.69-7.06-6.59-11.34s4.71-9.42,12.46-11.48a28.86,28.86,0,0,1,24.44,4.53c3.5,2.38,6.74,4.41,9.28,7.2,2.93,2.16,9.18,2.65,14.57,1.14,1.09-.3,2.18-.68,3.31-.88,4.5-.73,7,1.67,9.43,3.39,3.64,2.6,9.69,4,16.37,3.91,4.2-.09,8.74-.77,12.51-.18s6.16,3.25,3.1,5.25c-3.57,2.33-9.79,1.25-14.47,2.79-2,.67-3.63,1.81-5.76,2.27-3,.64-5.54-.22-7.78-1a43.9,43.9,0,0,0-16.5-2.45c-8.4.46-16.64,3.61-24.1,6.75a20.53,20.53,0,0,1-4.24,1.43A15.64,15.64,0,0,1,109.85,374Zm132.38,45.57a15.58,15.58,0,0,1-9,7.09,29.52,29.52,0,0,1-9.27,1.3c-12.94,0-21.35-5.34-28.58-10.36l-19.1-13.26c-5.85-4.05-12.61-8.37-23-8.47-8.06-.08-17.07,2.44-24.62,1.59-8.77-1-12.56-6.32-11.19-11.57,1-3.83,4.65-8,10.88-10.53a42.17,42.17,0,0,1,7.27-2.11,23.94,23.94,0,0,1,8.61-.57,24,24,0,0,1,4.71,1.71c5.69,2.2,14.88,1.87,22.11-.81a57.74,57.74,0,0,1,7.55-2.72c5.29-1.19,10.46.28,12.66,2.6s2.11,5.32,2,8.19-.1,5.86,2.17,8.16,6.16,3.51,10.1,4.75a29.53,29.53,0,0,0,9.52,1.69c3.41-.06,7-1,10.4-.91a15.83,15.83,0,0,1,8.29,2.47c3.18,2,3.55,2.87,5.1,5.64a5.94,5.94,0,0,0,.56,1.12,12.37,12.37,0,0,1,1.26,2.51C242.71,411.58,245,414.63,242.23,419.61Zm40.71-32.3c-.48,1.78-.4,3.55-1.39,5.33-2.21,4.12-10.11,7.56-17.62,8.38a35.37,35.37,0,0,1-19.33-3,28.32,28.32,0,0,1-10.39-9.28c-2.32-3.22-4.15-7.12-.39-10.76s11.79-5.82,14.44-9.53c1.93-2.66,1-5.93,5.35-7.73a13.66,13.66,0,0,1,8.07-.39c2.33.6,4.11,1.62,6.26,2.35,6.91,2.31,18,1.14,25.48-2.69,2.89-1.49,5.69-3.46,9.26-3.8a7.56,7.56,0,0,1,6.41,2c1.16,1.29,2.24,3.06,3.52,4.31,1.77,1.77,6.5,4.11,8.12,6a7,7,0,0,1,1.37,4.15c-.12,1.66-1.69,3.57-3.36,5.19a13.83,13.83,0,0,1-4.69,3.19c-4.17,1.67-9.13,1.11-13.31.51s-9.26-1-13.27.78A7.7,7.7,0,0,0,282.94,387.31Zm100.38-5.74c-.48,1.6-3.06,3-5.45,4.22-3.37,1.72-7.27,3.57-11.36,3.73-4.69.19-7.91-1.92-12.58-1.82-5.37.12-10.92,3.84-9.73,6.53.67,1.63,3.17,2.62,5.1,3.79a11,11,0,0,1,4.5,4.66,5.23,5.23,0,0,1-.91,6c-1.48,1.65-4,3-6.62,4.3A49.73,49.73,0,0,1,334,417.4c-8.38,1.66-16.25,0-22.76-2A118.78,118.78,0,0,1,290,406.5c-3.15-1.71-6.23-3.73-6.14-6.44,0-1.34.82-2.72,1.39-4.09.87-2.12,1.19-4.25,2.58-6.35a13.11,13.11,0,0,1,8-5.13c6.23-1.36,11.37,1.34,17.65.9,4.37-.31,8.9-2.34,10.58-4.73,1.19-1.71,1-3.42,1.5-5.13a7,7,0,0,1,5.17-4.52c2-.54,4.17-.4,6.27-.73,7.3-1.12,10.74-6.87,17.9-8.62a5.69,5.69,0,0,1,1.82-.2,1.4,1.4,0,0,1,1.39,1.62c-.06,3.29-1.91,7.32,2.22,9.24l.25.43A27.81,27.81,0,0,0,372.37,377a65.29,65.29,0,0,1,7.45,1.17C382.05,378.78,383.78,380,383.32,381.57ZM366.59,371a7.11,7.11,0,0,1-2.78-6.24c.21-3.8,2.84-7.86,7.35-11.36,2.86-2.21,6.49-4.25,8.36-6.66,3-3.87.67-7.79-3.86-10.16s-10.91-3.49-17.12-4.59c-2.56-.45-5.48-1.21-5.25-2.81.17-1.35,2.69-2.61,5.15-3.16s5-.61,7.51-.94A32,32,0,0,0,380,320l.51-.6c-.71-2.06-1-4.3.55-6.53s5.33-4.38,9.4-4.72c4.67-.38,7.85,1.63,9.17,3.84a7.81,7.81,0,0,1,0,7.88c-1.07,2.07-2.91,4.35-1.47,6s5.82,1.9,9.66,1.61,8-.87,11.24-.16c4.37.95,5.54,3.91,5.74,6.66a5.84,5.84,0,0,1-2.27,5.55c-1.13.89-2.73,1.62-4,2.46-6,3.77-5.69,8.74-7,13.25-1.71,5.78-7.44,12-16.87,15.77S372,375.19,366.59,371Z" style="fill:#fff;opacity:0.7000000000000001"></path></g><g style="opacity:0.2"><path d="M402.09,426.83a82.21,82.21,0,0,0-9.25-3.13c-2.74-.68-6.42-1-9.34.27a7.69,7.69,0,0,0-3.72,3.41,14.94,14.94,0,0,0-2,5.94c-.2,2,.11,4-.4,6a7.89,7.89,0,0,1-.48,1.33q3.47-1.6,6.84-3.3c.33-1.21.68-2.42,1.06-3.62a9.61,9.61,0,0,1,1.27-2.82,4.33,4.33,0,0,1,2.66-1.8,4,4,0,0,1,1.6.2c1.56.41,3.72.74,5.93,1.15C398.23,429.29,400.18,428.07,402.09,426.83Z" style="fill:#fff"></path><path d="M71.75,312.69c7.11-1.7,15.14-4.16,17.85-8.12,2.92-4.25-1.81-7.79-4.72-11.28-2.77-3.3-3.86-7.38-1.46-11.37q-4.62,3.81-8.67,7.79a11.09,11.09,0,0,0,1.41,3.5c.88,1.42,2.08,2.6,2.87,4.09a5.71,5.71,0,0,1,.24,5.24c-1.38,2.85-5,4.47-8.1,5.12-3.56.75-7,.77-10.62,1.45-.61.12-1.23.27-1.85.44a85.85,85.85,0,0,0-5.23,9.78C57.71,316.06,65.11,314.29,71.75,312.69Z" style="fill:#fff"></path><path d="M178.53,458.89q4.88,1,9.81,2a29,29,0,0,0-8.48-1.88C179.42,458.93,179,458.91,178.53,458.89Z" style="fill:#fff"></path><path d="M441,389.17c-2,.45-4,.79-6,1.08-6.25.9-12-.54-17.55-1.78-5.08-1.14-10.08-2.45-15.33-3.24-2-.3-3.9-.36-5.55,1.76-1.27,1.62-1,3.56-2.82,5-2.35,1.87-7.31,2.14-10,1.11s-3.85-2.91-5.11-4.65c-5.29-7.25-14.63-13.2-26.76-17.06-2.14-.68-4.46-1.35-5.44-2.6s-.46-3,.15-4.58c1-2.74,2.07-5.48,3.1-8.23A3.68,3.68,0,0,1,351,354c1.29-.89,3.44-1.17,5.3-1.24,7-.27,13.39,1.27,20.44,0,5.67-1,10.48-3.6,15.4-5.75a101.88,101.88,0,0,1,16.8-5.6c7.64-1.82,16.17-2.82,22.48-1.2s8.88,6.63,3.68,10.4c-1.67,1.22-4,2.2-5.46,3.48-3.27,2.74-1.86,5.92.89,8.08,3.26,2.58,8,4.37,12.52,6.28a51.85,51.85,0,0,1,6.33,3.15c.48-1.43.91-2.87,1.3-4.31A35.4,35.4,0,0,1,446,365.1c-1.71-1-3.76-1.34-5.42-2.45-2-1.36-3.22-3.21-2.4-5.22s3.37-3.81,5.07-5.74c3.85-4.39,2.6-9.38-3-11.88-2.83-1.26-6.93-2.34-6.31-4.6s5.18-3.73,8.89-5.06a66.54,66.54,0,0,0,6.81-2.86c-.69-2.14-1.49-4.26-2.39-6.38-3.13,3.75-8.75,6.57-13,8.17-7.46,2.8-16.29,4.05-23.2,7.31-3.6,1.69-7.51,4.11-11.5,3.8-2.73-.21-4.07-1.71-4.3-3.24s.3-3.17,0-4.67c-.54-2.48-3.4-4.36-6.6-5.88-9.16-4.33-21.9-6.79-27.58-12.77-1-1.06-1.74-2.38-.61-3.67,2.36-2.72,9.58-2.56,13.85-4.63,4.42-2.14,3.83-5.54,2.75-8.17s-2.23-5.3-3.34-7.94c-.79-1.9-1.6-3.82-1.18-5.9s2.23-4.36,5.55-5.79c4.76-2,10.76-1.72,15.43-.85a36.25,36.25,0,0,1,9.79,3c13.1,6.86,4.79,21.94,17.47,29a18.76,18.76,0,0,0,10.61,2.16c3.24-.27,6.53-1.31,9.74-1.64-1.38-2.21-2.87-4.41-4.49-6.58a18.53,18.53,0,0,1-7-.87c-6.69-2.65-6.85-11.32-10.16-17.26-.07-.14-.16-.27-.24-.4q-5.44-4.71-11.75-9.18c-.63-.26-1.27-.52-1.92-.75-5.79-2.1-12.13-3.26-18.12-5.06-.81-.25-1.66-.55-1.95-1.29-.39-1,.33-3.29,1.33-5.48a243.81,243.81,0,0,0-45.86-18.2c-3.12.16-6.26.42-9.38.64a2.33,2.33,0,0,1-1.28-.16c-.63-.38-.46-1.35-.32-2.17.08-.4.14-.8.19-1.2-1.93-.48-3.88-.93-5.83-1.37a8.28,8.28,0,0,1-.3,2.64,9.06,9.06,0,0,1-5.68,6.12c-1.7.72-3.7,1.12-5.31,1.88a8.34,8.34,0,0,0-3.36,2.84c-2.31,3.42-1.16,7,2.92,9.06,2.16,1.06,5,1.69,7.39,2.62a15.4,15.4,0,0,1,5.32,3.24c1.64,1.64,2.22,4.11-.84,5.74a18.22,18.22,0,0,1-4.95,1.47c-8,1.57-17.42,3-22.37.31-3.64-2-3.3-5.52-5.44-8.17a16,16,0,0,0-5.55-3.84c-8-3.87-18.44-6.28-30-6.91-4-.21-8.71-.38-10.45-2.24-1-1.09-.74-2.53-.42-3.9.92-4.22,2.92-8.8,7.19-11.8,2-1.4,9-4.58,7.76-7q-6.59-.18-13.18-.13a9.87,9.87,0,0,1,2.72.92c.58.32,1,.73,1,1.23,0,1.34-3,2.34-5.06,3.31a10.44,10.44,0,0,0-4.87,4,15.42,15.42,0,0,1-1.15,2.3,4.92,4.92,0,0,1-3.15,1.73c-1.95.28-3.2-.61-4.58-1.15-5.07-2.08-14,.17-20.2-1a25.81,25.81,0,0,1-5.45-1.91c-4.19-1.78-8.89-3.21-13.39-4.76-2.89.48-5.77,1-8.63,1.57a46.5,46.5,0,0,1,13.24,4.86c4.58,2.44,9.29,5.27,16.38,5.3,4.84,0,10.12-1.3,14.84-1,7.34.44,10.61,5.49,6.08,9.47a42.17,42.17,0,0,1-6.7,4.19c-4.64,2.68-8.52,5.85-10.08,9.17s-.54,6.76,3.52,8.63c2.3,1.07,8.3,1.66,6.34,3.44-3.1,2.8-10.6.37-15.51-.25a43.06,43.06,0,0,0-11.9,0c-5.46.82-11.21,2.33-16.32,1.66-3.71-.49-8.55-1.79-9.54-5.38-.78-2.91,1.31-6.3-.09-9-1.85-3.63-9.08-5-15.73-6s-14-2.15-16.38-5.62c-1.63-2.34-.59-5.36,2-8,.32-.32.65-.64,1-.95q-5.64,2-11.11,4.14a14.3,14.3,0,0,0,.74,7.23c.82,2,2.15,4.16.85,6.5-.88,1.6-2.7,2.68-4.36,3.61-2.12,1.2-4.39,2.43-6.58,2.51-2.64.1-4.46-1.51-6.29-2.86a35.41,35.41,0,0,0-10-4.84c-.81.45-1.62.9-2.42,1.36q-7.6,4.39-14.24,9.12a27.73,27.73,0,0,1,13-2.28,19.81,19.81,0,0,1,10.38,4.33c1.55,1.15,3.07,2.39,3.3,3.95.17,1.2-.46,2.49-.51,3.73-.19,3.16,3.21,5.57,6.85,7.55,3.45,1.9,7.52,4.3,5.24,7.33a25.91,25.91,0,0,1-2.55,2.42c-2.56,2.5-2.56,5.44,0,7.28,3,2.13,8.89,2.75,10.82,5.29s-1.82,6.58-7.37,7.85-11.2,0-16.52,1.55c-5.08,1.5-8,5.06-13.14,6.36s-9.63-.15-14.3-.72a44.25,44.25,0,0,0-14,.77c-2.73.57-5.38,1.4-8.14,1.84a16.4,16.4,0,0,1-7.39-.58,12.59,12.59,0,0,1-6.54-4.43,5.23,5.23,0,0,1-.58-1.06,71.46,71.46,0,0,0-2.13,7.65c3.24,1.18,6.19,2.74,6.43,5s-2.23,4.7-3.17,7.07c-1.42,3.64.88,6.94,3.77,9.76s6.43,5.47,7.7,8.79a5.26,5.26,0,0,1-1.13,5.74c-1.73,1.89-4.88,3.37-7.72,4.89l-2,1.08c.71,1.71,1.48,3.4,2.32,5.09,1.17-.87,2.44-1.71,3.74-2.5,4.72-2.9,10.12-5.67,13.13-9.05,2.75-3.11,3.18-6.54,1.13-9.18-3.14-4.09-11.57-6.1-13.91-10.43s2.64-10.12,10.83-12.88a45.13,45.13,0,0,1,16.36-2,47,47,0,0,1,20.88,5.75c4.33,2.47,7.71,6,5.22,9.91-2.28,3.57-9.12,6.67-9.77,10.24-.57,3,3.52,5,7.67,6.43s8.92,2.68,10.52,5.28c1.34,2.19.15,4.9.8,7.27,1.93,7,18.2,8.37,23.92,14.24.75.77,1.12,1.94-.37,2.66a7.28,7.28,0,0,1-2.5.51c-3.8.3-8,1.4-10.33-.64s-2.37-4.59-4.73-6.45c-3.82-3-10.76-4.66-18.31-4.3s-15.62,2.68-21.28,6.17c-1.68,1-3.17,2.16-5,3.14-4.63,2.48-11.06,3.61-16.61,3.34A119.35,119.35,0,0,0,79,412.46c8.88,5.28,22.6,5.17,29,13,2.32,2.82,3.46,6.41,4.57,10a228.43,228.43,0,0,0,28.77,12.74c1.36-.73,2.3-1.18,2.3-1.18,3.6-1.62,5.71-4.24,5.18-6.38a2.1,2.1,0,0,1-.12-1.33,3,3,0,0,1,1-1.05,17,17,0,0,1,12.5-2.39c3.11.79,4.59,2.71,7.68,3.52,3.24.81,7.54.26,11.53-.33a47.6,47.6,0,0,1,8.13-.73c2.63.09,5.08.75,5.86,2s-.29,3-.41,4.49c-.19,2.79,3,4.94,7.18,6.05s9.18,1.35,14.12,1.57,9.95.47,14.1,1.59a17.56,17.56,0,0,1,6.55,3.16c.63.5,1.16,1.1,1.05,1.79a4,4,0,0,1-1.18,1.69c-1.17,1.23-2.34,2.45-3.51,3.69-.47.49-1,1-1.46,1.46q3.68.19,7.35.3c2.85-2.06,5.58-4.25,6.71-6.58s.27-4.93-3.14-5.92c-1.89-.54-4.34-.55-6.32-1s-3.5-1.74-2.23-3a9.39,9.39,0,0,1,4.1-1.69c12.53-2.93,26.36-2.49,37.72-7,6.5-2.6,11.21-6.49,17.74-9.08,7.65-3.05,17.47-3.87,24.34-2a23.38,23.38,0,0,1,7.66,3.6c3.28,2.3,5.67,5.21,5.09,8.52s-4.76,7-10.74,8.47c-5,1.21-10,.61-14.93.42a92,92,0,0,0-14.28.57,38.68,38.68,0,0,0-11.82,2.9c-5.73,2.7-7.66,7.09-6.45,10.51.1.26.21.52.34.78q4.38-.28,8.76-.69a4.76,4.76,0,0,1,.53-3.57c1.53-2.74,5.08-4.07,8.12-4.68,11.39-2.25,21.89.48,33.24-1.35,4-.66,8.26-1.86,11.84-1.1a11.11,11.11,0,0,1,2.11.7q7.32-2,14.42-4.4a20.79,20.79,0,0,1-5.4-1.64,12.69,12.69,0,0,1-6.92-7.73v-1.38c.15-4.72-4-8.84-11-10.85a43.57,43.57,0,0,1-5.68-1.71c-1.61-.77-2.65-2-1.88-3.35a10.52,10.52,0,0,1,2-2c2.31-2.17,3-4.7,1.81-6.69-.77-1.27-2.05-2.83,0-4a7,7,0,0,1,4.63-.51,9.05,9.05,0,0,1,3.16,1.63A18.87,18.87,0,0,0,343,415.61c8,.23,15.82-3.88,22.1-7.58l10-5.89c2.87-1.68,6.32-3.55,10-3.63,2.25-.06,4.05.58,6.14.83a48,48,0,0,0,8,0c11.5-.53,22.39.95,30.75,4.17A102.32,102.32,0,0,0,441,389.17ZM319,258.45c-.36-3.67,6.11-7.73,13-9.18a45.72,45.72,0,0,1,19.67.56,58,58,0,0,1,19.11,8.42c3.62,2.45,6.87,5.22,7.49,8.63a3.85,3.85,0,0,1-1,3.49,17.16,17.16,0,0,1-4.44,2.91c-4.18,2.23-8.19,4.6-11.05,7.3s-4.49,5.79-3.52,8.4c1.05,2.79,4.84,4.71,6.93,7.19s1.63,6.4-3.42,8.32a27.61,27.61,0,0,1-5,1.17,38,38,0,0,1-15.38-.66,6.71,6.71,0,0,1-4.07-3.74c-1.2-2.84-.24-6.52.63-10,.8-3.15,1.55-6.6.35-9.24-1-2.22-3.49-3.32-4.35-5.65-.58-1.57-.31-3.49-.43-5.26C333.15,263.34,319.73,265.78,319,258.45ZM292.25,286.4c4.64-3.42,12.23-5.41,19.2-6,9.58-.75,19.32,1.33,21.1,6.14,1.54,4.14-3.05,9.08-2.91,13.51.2,5.7,8.07,9.41,15.45,12.62l24.17,10.47c9.15,4,18.87,8.58,18.88,15.69a6.55,6.55,0,0,1-2.37,5.08c-2.79,2.55-8,4.16-12.92,5-9.08,1.49-14.63.26-22.76-.86-1.7-.23-3.7-.46-4.59-.69-.46-.12-2-.31-2-.31-5-.85-6.59-1.06-10.28-2.8-2.38-1.14-4.4-2.64-4.5-4.55s1.56-3.83,1.66-5.7-1.49-3.65-3.09-5.22c-2.24-2.17-4.66-4.37-8.65-5.54C314.4,322,309,322,303.73,322s-10.68.07-14.93-1.12-6.91-4.05-4.74-6.94c1.12-1.5,3.27-2.77,5-4.15,4.88-4,5.48-9,1.46-12.13-1.09-.85-2.5-1.58-3.1-2.58-.85-1.4-.08-3.13,1-4.72A16.67,16.67,0,0,1,292.25,286.4ZM303.42,381c1.09,2.29,2.11,5-.93,7.3a19.85,19.85,0,0,1-5.82,2.57,29.76,29.76,0,0,1-17,1.09c-3.39-.89-7.65-3.48-10.88-4.45-2.27-.71-5.49-1.3-7.86-1.93s-4.23-1.91-3.71-3.52c.62-2,4.2-3.5,6.93-5.08,7-4.09,9.11-10.18,4.89-14-1.32-1.18-3.18-2.15-4.27-3.43s-1.23-3,.7-4.43c3.29-2.37,9.26-1.88,14.1-2.93,6.77-1.46,10.87-5.9,17.37-7.92s13.74-1.06,19.62.21c6.31,1.38,12.45,3,16.91,5.7s7.05,6.46,5.53,10.6-7.78,8.46-15.28,9.67c-3.26.54-6.47.5-9.72.76s-6.84,1-9.13,2.49C301.55,375.92,302.32,378.73,303.42,381ZM172.76,339.77a29,29,0,0,0-10.48-6.16c-4-1.41-8.56-2.39-12.14-4.06s-6.17-4.25-4.85-7.19c1.14-2.58,5.11-4.94,9.55-6.3a49.77,49.77,0,0,1,13.89-1.89c9-.11,17.4,1.3,23.78,4,2.45,1.06,4.71,2.41,4.85,4.3.12,1.36-.88,2.82-1.57,4.23-1.39,2.92-1.13,6.22,3,7.49,2.84.88,6.79.58,10.11,1s6.1,2.31,4,4.18a22.09,22.09,0,0,1-2.8,1.69c-3.18,2-2.89,4.63-3,7a17.69,17.69,0,0,1-4.53,10.09,5.58,5.58,0,0,1-.76.91c-5.27,3.89-9.27,9-17.15,10.76-5.31,1.18-10.35-.27-13.07-2.4-3.32-2.63-4.2-6.3-2.38-9.93,1.73-3.45,5.78-6.83,6.62-10.28C176.44,344.44,175,341.92,172.76,339.77Zm45.62-28.83c1.49-4.09,9.53-7.75,16.94-8.26s13.73,1.72,16.59,5c2.37,2.73,2.64,6.09,4,9.13a19.94,19.94,0,0,0,7.15,8.14,19,19,0,0,0,6.47,2.93c6,1.4,13.92.12,21.22-.72a78.65,78.65,0,0,1,15.38-.56c4.86.43,9.26,1.71,11.43,4,1.51,1.58,2.5,4.2.21,6s-6.49,2.05-9.3,1.16a6.89,6.89,0,0,0-1.73-.09,59.8,59.8,0,0,0-13.84,2.61c-5.38,1.79-9.89,4.43-15.17,6.34s-12.2,3-16.06,1.19c-5.52-2.53-.87-8.52-3.87-12.2-2.12-2.64-7.72-3.64-13.13-4.1a77.82,77.82,0,0,0-13.16-.13c-4.31.37-8.71,1.21-12.94,1.28a24.2,24.2,0,0,1-11.1-2.12c-1.91-1-3.31-2.49-2.18-4.12,1.67-2.37,7.34-3.34,10.35-5.41C220,318,217.12,314.39,218.38,310.94Zm-10.69,54.82c2.41-6.22,4.79-12.42,7.2-18.64.9-2.31,1.84-4.72,4.36-6.86,3.3-2.8,9.2-4.79,14.64-5s10.16,1.47,11.7,4.09c1,1.73.7,3.77,1,5.67a11.6,11.6,0,0,0,4.71,7.53c1.66,1.31,3.74,3,1.78,4.64s-6,1.68-9.29,2.12a25.92,25.92,0,0,0-13.95,6.44c-3.1,3-4.54,6.17-5.91,9.31-1,2.33-2.07,4.67-3.11,7a11.62,11.62,0,0,1-2.8,4.32c-2.93,2.71-8.89,4.47-14,4.48s-10-1.32-11.73-3.74a5.37,5.37,0,0,1-.41-1c-.11-2.22,1.55-3.56,3.93-5.72,1.58-1.42,3.61-2.72,5.25-4.13C204.86,373,206.31,369.32,207.69,365.76Zm-1.22,30.17a50.57,50.57,0,0,1,7-2.17c7.56-4,13.3-9,16.21-14.16,1.6-2.87,2.36-5.76,4.05-8.62a19.13,19.13,0,0,1,9.14-7.76,8,8,0,0,1,2.18-.64,7.58,7.58,0,0,1,2.74.3c5.14,1.27,10.69,2.84,11.78,6,.92,2.64-1.62,5.75-5.08,8.31-3.22,2.39-7.57,4.86-7.64,7.49,0,1.66,1.79,3,4,3.84,5,1.93,12,2.12,17.77,3.4s10.7,4.5,8,8.25c-3.52,4.84-16,6.33-21.51,10.8-2.13,1.73-3,3.76-5.28,5.43-3.77,2.75-10.63,3.8-15.7,3.11a23.17,23.17,0,0,1-11.51-5c-2.86-2.25-5.22-4.73-8.8-6.61-3-1.6-6.95-2.76-9.2-4.75S202.42,397.87,206.47,395.93ZM227,275.49a5.73,5.73,0,0,1,.26-7.88c3.76-4.25,13.14-6.79,20.93-6.84s14.38,1.79,20.67,3.62c9.24,2.7,19.13,5.91,20.92,11.89a2.78,2.78,0,0,1-.18,2.39A10.27,10.27,0,0,1,287,281c-5.72,4.09-11.47,8.61-12.3,13.22-.62,3.41,1.56,6.45,4.47,9,1.35,1.23,2.91,2.65,1.75,4.26-.85,1.17-2.92,2.06-4.14,3.17-2.81,2.56-.84,6-5.08,7.93-3.65,1.68-8.52.39-9.57-1.69s.15-4.57.31-6.87c.24-3.66-2.38-7-7.11-9-3.14-1.32-7.52-2.71-6.18-5.17a12.57,12.57,0,0,1,1.6-1.82c2.76-3,1.85-6.39-2.08-8A87,87,0,0,1,235.54,281C232.09,279.48,228.85,277.76,227,275.49Zm-89.15,31.85c-1-.57-1.85-1.26-1.68-2.15.31-1.56,3.6-2.77,5.12-4.27,2.57-2.55-.6-4.94-3.74-6.53-2.94-1.47-6-2.91-7.94-4.87-2.91-3-2.75-7.09.43-10.79s9.34-7,16.19-8.53c7.47-1.71,16.53-.94,18.19,2.8a8,8,0,0,1,.28,3.41c-.11,5.45,3.9,10.92,13.1,12.07,6.05.77,13.09-.45,19.8-1.22a136.12,136.12,0,0,1,35.86.5c5.66.89,11.63,2.9,10.54,6.41-.76,2.39-4.77,4.57-9,5.71a66.27,66.27,0,0,1-13,1.64c-2.8,1.08-8.31,3.22-9.92,5.29-1.26,1.66-.67,3.32-.55,4.93s-.58,3.62-3.28,4.76a11.66,11.66,0,0,1-7.61.19,20.17,20.17,0,0,1-4.9-2.88c-4.06-2.73-10-4.58-17-4.82-9.13-.32-19.26,2.08-28.31,1.61A28.18,28.18,0,0,1,137.86,307.34Zm-17,58.24c-2.09-1-4.57-2.68-5.7-4.81s-.14-4.82,2.58-7c3.35-2.74,9.51-5.35,8.81-8.14-.28-1.13-1.73-1.93-3.11-2.67q-5.16-2.71-10.32-5.47c-2-1.1-4.22-2.36-3.94-4.14.22-1.33,1.85-2.69,3.8-3.76,5.87-3.17,15.11-4,20.26-1.86,3.31,1.4,4.83,3.75,7.51,5.51,3.18,2.08,7.91,3.28,12.54,4.43s9.34,2.33,12.58,4.39,4.69,5.23,2.24,8.29c-1.77,2.17-5.32,4.06-6.58,6.29s-.66,4.73-4.18,6c-2.33.84-4.93.46-7.44.56-4.74.18-9.33,2.12-14,3.29S124,367.1,120.82,365.58ZM164,429.33c-4.2,2.11-9.25,1.27-14.36,2-2.17.31-4.25.09-6.42.2s-4.78.79-5.6,2a1.51,1.51,0,0,0,.05,1.78c.72,1.2,2.25,2.12,3.12,3.26s.95,2.75-.89,3.91c-2.22,1.42-5.94,1.46-8.52.89-7.75-1.7-10.23-6.75-11.18-11.53s-1.22-10-6.52-13.35c-4.6-2.92-12.21-3.89-18.68-5.58S82.58,408,83.94,403.62c.7-2.22,3.19-4.4,6.11-6.3a43.64,43.64,0,0,1,16.35-6.44c6.2-1,12.8-.38,15.84,2.11,2,1.65,2.32,3.88,3.24,5.89a7.63,7.63,0,0,0,6.63,4.39c5,.53,11-2,16.21-1.82,5.51.17,8.07,3.12,9.92,5.78q3.87,5.55,7.71,11.1c1.16,1.69,2.36,3.41,2.36,5.34S167,427.83,164,429.33Zm3.71-21.44c-1.92-7.52-8.55-14.1-18.65-18.5-5.18-2.24-11.31-4-15.14-6.93s-4.69-7.72.61-11.27c5.47-3.68,15-4.37,21.67-3s11.35,4.18,17,6.32a15,15,0,0,0,5.91,1.17c5.89-.16,10.14-5.19,16.15-6,.65-.1,2.51-.19,3.06.69.95,1.58-2,5.18-4.39,7.27s-5.74,3.85-8.38,5.86-4.53,4.57-3,6.41c2.31,2.88,11.32,2.44,13.16,5.45,1.74,2.83-4,6.39-4.65,9.65-.9,4.37,7.47,7.45,4.29,11.82-1.72,2.37-6.64,4.11-11,4.3a18.81,18.81,0,0,1-10.58-2.51,11.11,11.11,0,0,1-4.4-4.62C168.43,412,168.24,409.93,167.72,407.89Zm116.51,24.59c-6.87,5.17-18.22,8.32-28.76,9.25-8.21.73-17.27.54-24.15,3.85-1.53.72-2.86,1.6-4.49,2.22-3.11,1.19-6.79,1.32-10.11,1.24-5-.11-10.4-.75-12.15-3.15-1.28-1.78-.21-4,.31-6.16s.17-4.48-2.95-5.3-7.22.22-11,.81a44.58,44.58,0,0,1-14.36,0c-4-.72-7.71-2.47-7-5,.62-2.23,4.55-4.31,8.61-5.15a38.57,38.57,0,0,1,11.9-.31l1.09-.28c4.65-1.93,8.17-4.81,9.41-7.7.59-1.38.72-2.77,1.71-4.12a8.05,8.05,0,0,1,5.76-2.83,5.28,5.28,0,0,1,5.13,2.88c2,3.41,4,6.91,8.35,9.4s11.48,3.76,18.53,2.11c4.4-1,8.11-3,12.15-4.58a61.43,61.43,0,0,1,20.7-4,31.6,31.6,0,0,1,11.37,1.52C291.88,420.06,291.09,427.3,284.23,432.48Zm84.6-33.22c-1.6,2.45-4.77,4.66-8.08,6.71a29.81,29.81,0,0,1-7.84,3.64,28.36,28.36,0,0,1-10.92.49,27.52,27.52,0,0,1-8.5-2.47c-2.13-1.05-3.93-2.42-6.9-2.79-4.92-.66-11.69,2.39-11.9,5.33-.19,2.57,3.66,4.33,3.31,6.9-.29,2.25-3.66,4.39-6.8,6.24a18.68,18.68,0,0,1-7.7,3,7.73,7.73,0,0,1-6.23-1.92c-1.13-1.23-1.46-2.71-2.13-4.09-1.3-2.62-4-4.87-7.71-6.46l-.79-.13c-3.5-2.27-10.84-1.26-16.84-1.22-1.27,0-2.71-.11-2.95-.76-.11-.32.11-.68.36-1,3.19-3.93,13.67-5.82,15.72-9.82.59-1.15.34-2.33,1.33-3.44,1.46-1.67,5.1-2.56,8.24-2.84s6.23-.17,9.34-.82c4.37-.92,8.06-3.41,8.63-5.8.8-3.45-4.13-6.27-1.63-9.69,1.54-2.08,5.5-3.63,9.34-4.39s7.71-.94,11.58-1.42a59.73,59.73,0,0,1,7.45-.76A22.7,22.7,0,0,1,349,375.1a76.89,76.89,0,0,1,16.13,11.68C368.78,390.35,371.85,394.66,368.83,399.26Z" style="fill:#fff"></path></g></g></g><g id="freepik--Clouds--inject-13"><path id="freepik--Cloud--inject-13" d="M153.44,62.27a13.47,13.47,0,0,0-4.55-.84c-1.48-.12-1.94-.41-2.23-.73a10.85,10.85,0,0,0-13-3.85c-.86-3.53-5.13-6.59-9.83-5.56.16-4.59-5.69-9.51-11-10.63-5-1.07-9.44-.62-12.32,2.69-3.08-6-15.16-7.71-21.69-4.53-3.76,1.83-7,3.71-8.51,7.16a14.32,14.32,0,0,0-1.41,6.84c-2.55-2.24-7.65-2.85-11-1.53-3.67,1.42-4,4.18-4.13,7a12.86,12.86,0,0,0-6.67-.12c-2.32.69-3.65,2.5-3.33,4-1.83-.11-6.18,1.37-5.68,3.3.56,2.17,5.53,1.95,7.39,1.88a34.73,34.73,0,0,0,5.2-.82,8,8,0,0,0,2.71.52c3.16,0,4.5-1.38,5-2.56,1.55,3.25,7,5.73,10.94,6.73,7.32,1.87,17.68.73,22.19-4.74a8.17,8.17,0,0,0,2.18,2.66,12.67,12.67,0,0,0,6.77,2.74c3,.28,11.08.67,13.35-4.11,1.61,3.18,8.8,4.62,14.26,3.85a22.3,22.3,0,0,0,6.12-1.85,37.23,37.23,0,0,0,3.52-2.11c1.07-.64,1.56-.64,3-.2,3.75,1.13,8.1,1.59,11.93,0C155.66,66.12,156.3,63.57,153.44,62.27Z" style="fill:#f5f5f5"></path><path id="freepik--cloud--inject-13" d="M406.92,96.27a13.52,13.52,0,0,0-4.55-.84c-1.48-.12-1.94-.41-2.23-.73a10.85,10.85,0,0,0-13-3.85c-.87-3.53-5.13-6.59-9.83-5.56.16-4.58-5.7-9.51-11-10.63-5-1.07-9.44-.62-12.31,2.69-3.09-6-15.16-7.71-21.7-4.52-3.75,1.83-6.94,3.7-8.5,7.15a14.32,14.32,0,0,0-1.42,6.84c-2.54-2.24-7.64-2.85-11-1.53-3.67,1.42-3.95,4.18-4.13,7a12.9,12.9,0,0,0-6.68-.12c-2.31.69-3.64,2.5-3.32,4-1.83-.11-6.18,1.37-5.68,3.3.56,2.17,5.53,1.95,7.39,1.88a34.73,34.73,0,0,0,5.2-.82,7.9,7.9,0,0,0,2.7.52c3.17,0,4.51-1.38,5-2.56,1.55,3.25,7.05,5.73,10.93,6.73,7.33,1.87,17.69.73,22.2-4.74a8.17,8.17,0,0,0,2.18,2.66,12.67,12.67,0,0,0,6.77,2.74c3,.28,11.08.67,13.35-4.11,1.61,3.18,8.8,4.62,14.26,3.85a22.4,22.4,0,0,0,6.12-1.85,35.82,35.82,0,0,0,3.51-2.11c1.08-.64,1.57-.64,3-.2,3.75,1.13,8.1,1.59,11.93,0C409.14,100.12,409.78,97.57,406.92,96.27Z" style="fill:#f5f5f5"></path><path id="freepik--cloud--inject-13" d="M191.25,100.39a9,9,0,0,0-2.88-.53c-.93-.07-1.23-.26-1.41-.46A6.88,6.88,0,0,0,178.7,97a5.29,5.29,0,0,0-6.23-3.52c.1-2.9-3.6-6-6.94-6.73-3.19-.68-6-.4-7.8,1.7-1.95-3.81-9.6-4.88-13.74-2.87-2.38,1.16-4.4,2.35-5.39,4.53a9.1,9.1,0,0,0-.89,4.34,7.63,7.63,0,0,0-7-1c-2.32.9-2.5,2.65-2.61,4.43a8.15,8.15,0,0,0-4.23-.08c-1.47.44-2.31,1.59-2.11,2.51-1.16-.06-3.92.88-3.6,2.1s3.51,1.23,4.68,1.19a22.52,22.52,0,0,0,3.3-.52,5.09,5.09,0,0,0,1.71.33c2,0,2.86-.88,3.18-1.62,1,2.06,4.46,3.63,6.93,4.26,4.63,1.19,11.2.46,14-3a5.22,5.22,0,0,0,1.38,1.68,8.07,8.07,0,0,0,4.29,1.74c1.91.18,7,.42,8.46-2.61,1,2,5.57,2.93,9,2.44a14,14,0,0,0,3.88-1.17,21.93,21.93,0,0,0,2.23-1.34,1.87,1.87,0,0,1,1.89-.13,11.34,11.34,0,0,0,7.56,0C192.66,102.84,193.07,101.22,191.25,100.39Z" style="fill:#f5f5f5"></path><path id="freepik--cloud--inject-13" d="M457,57.64a8.48,8.48,0,0,0-2.88-.53c-.94-.08-1.23-.26-1.41-.46a6.88,6.88,0,0,0-8.26-2.45,5.29,5.29,0,0,0-6.23-3.52c.1-2.9-3.61-6-6.94-6.73s-6-.39-7.8,1.71c-1.95-3.81-9.6-4.89-13.74-2.87-2.38,1.16-4.4,2.35-5.39,4.53a9.22,9.22,0,0,0-.9,4.34c-1.61-1.43-4.84-1.81-7-1-2.33.9-2.5,2.65-2.62,4.43a8.1,8.1,0,0,0-4.23-.07c-1.46.43-2.3,1.58-2.1,2.51-1.16-.07-3.92.87-3.6,2.09s3.5,1.24,4.68,1.19a20,20,0,0,0,3.29-.52,5.21,5.21,0,0,0,1.72.33c2,0,2.85-.87,3.17-1.62,1,2.06,4.47,3.63,6.93,4.26,4.64,1.19,11.2.47,14.06-3A5.22,5.22,0,0,0,419.12,62a7.93,7.93,0,0,0,4.29,1.74c1.9.18,7,.42,8.46-2.6,1,2,5.57,2.93,9,2.43a13.91,13.91,0,0,0,3.87-1.17A22.64,22.64,0,0,0,447,61a1.84,1.84,0,0,1,1.9-.13,11.34,11.34,0,0,0,7.56,0C458.39,60.08,458.79,58.46,457,57.64Z" style="fill:#f5f5f5"></path></g><g id="freepik--Lines--inject-13"><g id="freepik--lines--inject-13"><path d="M161.41,372.24c-10.3-7.63-19.28-18.1-22-30.89C136,325,144.31,309.84,156.13,299a107.2,107.2,0,0,1,14.14-10.65c-14.84,7.86-29.32,20.52-33.36,37.6-4.82,19.59,7,38,22.21,49.34,44.74,33.37,123.55,34,170.61,5.12C282.21,405.34,205.4,404.25,161.41,372.24ZM363.35,327c-3.53-20-20.5-34.24-37.69-43-38.08-19.3-87.59-20.84-127.76-7.34,41-9.92,87.82-8,126,10.82,20.29,9.93,41.35,29.3,37.23,54-1.56,9.42-6.6,18-13,25C358.94,356.63,366.09,341.78,363.35,327Z" style="fill:#263238;opacity:0.2"></path><path d="M337.33,278.46c-52.76-27.39-129.35-26.53-180.56,4.06-13.13,8.19-25.32,19.26-31.35,33.77,6.6-14.16,18.83-24.77,32.11-32.52,51-29,126.44-29.36,178.53-2.89,19.7,10.38,39.68,27.52,41.32,51.18,1,14.5-6.12,28.42-16.05,38.62a101.76,101.76,0,0,1-20.52,16.1A96.72,96.72,0,0,0,362,371.3c9.14-8.86,16.06-20.54,17.21-33.4C381.52,311,359.4,289.93,337.33,278.46ZM176.79,393.71c-16-6.47-31.63-15.44-42.89-28.81a53.18,53.18,0,0,1-11.69-23.15,45.53,45.53,0,0,0,3.71,12.67c13.62,29.58,51.36,45.43,81.61,51.38,32.44,6.37,66.63,5,98.27-4.65C263.3,410.91,217.61,409.5,176.79,393.71Z" style="fill:#fff;opacity:0.5"></path><path d="M308.45,297.06c-35.15-18.25-86.19-17.68-120.31,2.71-8.75,5.45-16.87,12.83-20.89,22.5,4.4-9.44,12.54-16.51,21.39-21.67,34-19.34,84.25-19.57,119-1.93,13.13,6.92,26.44,18.34,27.54,34.1.69,9.67-4.08,19-10.69,25.74a67.85,67.85,0,0,1-13.68,10.73,64.24,64.24,0,0,0,14.09-10.32c6.1-5.9,10.7-13.68,11.47-22.25C337.9,318.74,323.16,304.7,308.45,297.06Zm-107,76.8c-10.68-4.32-21.08-10.29-28.58-19.2a35.38,35.38,0,0,1-7.79-15.43,30.6,30.6,0,0,0,2.47,8.45C176.66,367.39,201.8,378,222,381.91a135.59,135.59,0,0,0,65.48-3.1C259.12,385.32,228.68,384.38,201.48,373.86Z" style="fill:#fff;opacity:0.5"></path><path d="M353.25,274.75c30.94,18.41,54.67,50.95,33.81,86.19-23.41,38.08-81.95,53.89-124.15,56.11-29.73,1.73-59.88-1.45-88.33-10.49,57.38,20.68,131.94,18,184.52-14.44C412.89,357.81,408.13,304.62,353.25,274.75Zm-202.33-.54c24.46-13.17,52.26-19.73,79.84-22.13,31.28-2.55,63.15.28,93.21,9.57C267.2,241.52,192,244.43,140.34,277c-53.4,34.46-48.08,87.34,6.41,117-27.63-16.47-51.63-45.57-37.52-78.92C117.19,296.71,133.59,283.41,150.92,274.21Z" style="fill:#263238;opacity:0.30000000000000004"></path><path d="M322.53,292.49c21.73,12.93,38.4,35.79,23.75,60.55-16.45,26.74-57.57,37.85-87.21,39.41a172.38,172.38,0,0,1-62-7.37c40.3,14.53,92.68,12.65,129.62-10.14C364.42,350.83,361.08,313.47,322.53,292.49Zm-142.14-.38c17.19-9.25,36.72-13.86,56.09-15.54A174,174,0,0,1,302,283.29c-39.88-14.15-92.69-12.1-129,10.75-37.51,24.21-33.77,61.35,4.51,82.19-19.41-11.57-36.27-32-26.36-55.44C156.7,307.91,168.22,298.57,180.39,292.11Z" style="fill:#263238;opacity:0.30000000000000004"></path><g style="opacity:0.30000000000000004"><path d="M224.6,305.69c19.89-6.69,44.4-5.93,63.25,3.63,8.51,4.35,16.92,11.43,18.66,21.31,1.36,7.33-2.18,14.68-7.53,19.53a25,25,0,0,0,6.42-12.39C307.44,325.55,297,316,287,311c-18.89-9.3-42.08-10.27-62.37-5.35Z" style="fill:#263238"></path></g><path d="M295.47,305.42c-27.24-14.15-66.79-13.7-93.24,2.1-6.78,4.23-13.07,9.94-16.18,17.44,3.4-7.32,9.72-12.8,16.58-16.8,26.33-15,65.29-15.16,92.19-1.49C305,312,315.31,320.88,316.16,333.1c.53,7.48-3.17,14.68-8.29,19.94a52.76,52.76,0,0,1-10.6,8.31,49.76,49.76,0,0,0,10.92-8c4.72-4.58,8.3-10.6,8.89-17.25C318.29,322.22,306.87,311.34,295.47,305.42Zm-82.9,59.51c-8.28-3.34-16.33-8-22.15-14.87a27.43,27.43,0,0,1-6-12,23.33,23.33,0,0,0,1.91,6.55c7,15.27,26.52,23.45,42.15,26.53a105.18,105.18,0,0,0,50.74-2.4C257.24,373.81,233.65,373.09,212.57,364.93Z" style="fill:#fff;opacity:0.5"></path><path d="M272.65,320.1c-13.36-6.94-32.75-6.72-45.72,1-3.32,2.07-6.41,4.87-7.93,8.55a19.46,19.46,0,0,1,8.13-8.24c12.91-7.34,32-7.43,45.2-.73,5,2.63,10,7,10.46,13,.26,3.67-1.55,7.2-4.06,9.78a26.08,26.08,0,0,1-5.2,4.08,24.52,24.52,0,0,0,5.36-3.92,13.78,13.78,0,0,0,4.35-8.46C283.84,328.34,278.24,323,272.65,320.1ZM232,349.28A27.31,27.31,0,0,1,221.14,342a13.57,13.57,0,0,1-3-5.87,11.61,11.61,0,0,0,.94,3.21c3.45,7.49,13,11.51,20.67,13a51.51,51.51,0,0,0,24.88-1.18A56.19,56.19,0,0,1,232,349.28Z" style="fill:#fff;opacity:0.5"></path><path d="M282.35,315.83c9.57,5.7,16.92,15.77,10.46,26.68-7.24,11.79-25.36,16.68-38.42,17.37a76,76,0,0,1-27.34-3.25c17.76,6.4,40.83,5.57,57.11-4.47C300.8,341.54,299.33,325.08,282.35,315.83Zm-62.62-.16c7.57-4.08,16.17-6.11,24.71-6.85a76.9,76.9,0,0,1,28.85,3c-17.57-6.23-40.84-5.33-56.84,4.74-16.53,10.66-14.88,27,2,36.21-8.56-5.1-16-14.1-11.62-24.42C209.29,322.63,214.36,318.51,219.73,315.67Z" style="fill:#263238;opacity:0.30000000000000004"></path></g></g><g id="freepik--Splash--inject-13"><path d="M174.46,295c1.73-2.87,3.84-5.56,5.37-8.55,1.35-2.63,3.18-4.18,2.79-7-.36-2.66-3.12-3.46-5.67-4.35a9.65,9.65,0,0,1-3.45-2.13,4,4,0,0,1-1.39-2.46,3.39,3.39,0,0,1,1.1-2.63,5.88,5.88,0,0,1,5.35-1.41,8.54,8.54,0,0,1,4.73,3.1c1,1.23,1.69,2.64,2.6,3.92a7,7,0,0,0,3.61,2.87,6.33,6.33,0,0,0,6.6-1.94,9.79,9.79,0,0,0,1.72-6.52,20.75,20.75,0,0,0-2.12-8.5c-1.37-2.8-3.37-5.29-4.43-8.23a18.51,18.51,0,0,1-.74-8.56,17.36,17.36,0,0,1,4.17-9.74,10.38,10.38,0,0,1,9.74-3.25c2.62.66,4.95,2.85,5.18,5.53.3,3.41-2.57,6.15-4,9.28-2.58,5.83.16,12.54,3.09,18.2,4.9,9.43,15.71,16.37,23.83,5.65,3.32-4.39,3-11.36,7-14.84s10.47-1.8,14.08,1.63,6,8.46,9.86,11.88A18.38,18.38,0,0,0,294,250.55c-.89-6.17-4.48-13.6.16-17.77,3-2.67,8-1.78,10.81,1.06s3.8,7,3.95,11a34.31,34.31,0,0,1-3.22,15.83c-1.74,3.7-4.18,7.17-5,11.18s.76,9,4.66,10.21c6.12,2,11.39-6.16,17.82-5.88a3.57,3.57,0,0,1,2.48,1c1.33,1.47.34,3.76-.55,5.53-2.77,5.58-5.43,15.25-1,20.59a11,11,0,0,0,10.82,3.62c-3,.72-3.35,7.68-4.12,9.91A44.91,44.91,0,0,1,325.06,328a73.13,73.13,0,0,0-31.49-28c-12.07-5.57-25.41-7.72-38.64-9a139.61,139.61,0,0,0-15.57-.8,90.2,90.2,0,0,0-42.42,11.33c-7.15,4-14.05,9.32-17.13,16.9-.81,2-1.45,4.28-3.24,5.5-4.55,3.1-5.33-4.17-5.23-7.14.19-5.52-1-11.48.78-16.89A23.72,23.72,0,0,1,174.46,295Z" style="fill:#263238"></path><path d="M174.46,295c1.73-2.87,3.84-5.56,5.37-8.55,1.35-2.63,3.18-4.18,2.79-7-.36-2.66-3.12-3.46-5.67-4.35a9.65,9.65,0,0,1-3.45-2.13,4,4,0,0,1-1.39-2.46,3.39,3.39,0,0,1,1.1-2.63,5.88,5.88,0,0,1,5.35-1.41,8.54,8.54,0,0,1,4.73,3.1c1,1.23,1.69,2.64,2.6,3.92a7,7,0,0,0,3.61,2.87,6.33,6.33,0,0,0,6.6-1.94,9.79,9.79,0,0,0,1.72-6.52,20.75,20.75,0,0,0-2.12-8.5c-1.37-2.8-3.37-5.29-4.43-8.23a18.51,18.51,0,0,1-.74-8.56,17.36,17.36,0,0,1,4.17-9.74,10.38,10.38,0,0,1,9.74-3.25c2.62.66,4.95,2.85,5.18,5.53.3,3.41-2.57,6.15-4,9.28-2.58,5.83.16,12.54,3.09,18.2,4.9,9.43,15.71,16.37,23.83,5.65,3.32-4.39,3-11.36,7-14.84s10.47-1.8,14.08,1.63,6,8.46,9.86,11.88A18.38,18.38,0,0,0,294,250.55c-.89-6.17-4.48-13.6.16-17.77,3-2.67,8-1.78,10.81,1.06s3.8,7,3.95,11a34.31,34.31,0,0,1-3.22,15.83c-1.74,3.7-4.18,7.17-5,11.18s.76,9,4.66,10.21c6.12,2,11.39-6.16,17.82-5.88a3.57,3.57,0,0,1,2.48,1c1.33,1.47.34,3.76-.55,5.53-2.77,5.58-5.43,15.25-1,20.59a11,11,0,0,0,10.82,3.62c-3,.72-3.35,7.68-4.12,9.91A44.91,44.91,0,0,1,325.06,328a73.13,73.13,0,0,0-31.49-28c-12.07-5.57-25.41-7.72-38.64-9a139.61,139.61,0,0,0-15.57-.8,90.2,90.2,0,0,0-42.42,11.33c-7.15,4-14.05,9.32-17.13,16.9-.81,2-1.45,4.28-3.24,5.5-4.55,3.1-5.33-4.17-5.23-7.14.19-5.52-1-11.48.78-16.89A23.72,23.72,0,0,1,174.46,295Z" style="fill:#fff;opacity:0.2"></path><path d="M195.94,274.54a5,5,0,0,0,1.48-.8c2.05-1.62,2.41-4.58,2.23-7.19a27,27,0,0,0-1.59-7.42c-.73-2-1.72-4-1.62-6.14a7.41,7.41,0,0,1,2.17-4.7c.9-.92,2.11-1.94,1.82-3.2-.37-1.66-2.69-1.62-4.28-2.23-2.65-1-3.54-4.56-2.59-7.23a11.86,11.86,0,0,1,2.9-4.3,11,11,0,0,0-1.76,1.5,17.36,17.36,0,0,0-4.17,9.74,18.38,18.38,0,0,0,.74,8.56c1.06,2.94,3.06,5.43,4.43,8.23a20.75,20.75,0,0,1,2.12,8.5,9.79,9.79,0,0,1-1.72,6.52Z" style="fill:#263238"></path><path d="M330.2,307a10.71,10.71,0,0,1-5.88,4.29c-5.29,1.28-10.15-2.88-14.41-6.26-11.07-8.8-24.56-13.94-38.37-16.49-13.18-2.44-27.09-3.12-40.35-1-14.59,2.33-28.48,7.81-41.67,14.32-2.6,1.29-5.62,2.64-8.28,1.48-2.88-1.25-3.88-5-3.18-8s2.65-5.64,4.3-8.31,3.07-5.74,2.52-8.82a7.61,7.61,0,0,0-4.08-5.43c-1.69-.82-3.7-1-5.14-2.22a3.23,3.23,0,0,1-.81-3.69,5.14,5.14,0,0,0-1.64,1.08,3.39,3.39,0,0,0-1.1,2.63,4,4,0,0,0,1.39,2.46,9.6,9.6,0,0,0,3.46,2.13c2.54.89,5.3,1.69,5.66,4.35.39,2.83-1.44,4.38-2.79,7-1.53,3-3.64,5.68-5.37,8.55a23.72,23.72,0,0,0-2.34,4.9c-1.76,5.41-.59,11.37-.78,16.89-.1,3,.68,10.24,5.23,7.14,1.79-1.22,2.43-3.49,3.24-5.5,3.08-7.58,10-12.92,17.13-16.9a90.2,90.2,0,0,1,42.42-11.33,139.61,139.61,0,0,1,15.57.8c13.23,1.28,26.57,3.43,38.64,9a73.13,73.13,0,0,1,31.49,28,44.91,44.91,0,0,0,5.71-11.13c.77-2.23,1.16-9.19,4.12-9.91A10.6,10.6,0,0,1,330.2,307Z" style="fill:#263238"></path><path d="M249.13,252.65a5.7,5.7,0,0,1,1,0c-3.41-1.61-7.52-1.82-10.52.77-4,3.48-3.72,10.45-7,14.84-4.07,5.37-8.81,6.31-13.15,4.72a5.74,5.74,0,0,0,.47.35,7.44,7.44,0,0,0,5,.73c5.66-.85,10.33-5.08,13.31-10a80.25,80.25,0,0,1,4.22-7.09C244.05,254.79,246.39,252.91,249.13,252.65Z" style="fill:#263238"></path><path d="M301.48,251.13a3.35,3.35,0,0,0-.18-3.56c-.85-1-2.31-1.12-3.55-1.56a7.67,7.67,0,0,1-4.47-4.71,11.79,11.79,0,0,1-.22-6.61,9.66,9.66,0,0,1,.35-1.15c-3.51,4.27-.27,11.2.56,17a18.88,18.88,0,0,1-9.48,18.82c-.26.14-.54.26-.81.39a8.1,8.1,0,0,0,1-.24c3.45-1,6.13-3.73,8.26-6.63s3.84-6.1,6.23-8.79A13.19,13.19,0,0,0,301.48,251.13Z" style="fill:#263238"></path><path d="M324.07,303.3c-4.39-5.34-1.73-15,1-20.59.89-1.77,1.88-4.06.55-5.53a3.58,3.58,0,0,0-2.49-1,6.54,6.54,0,0,0-.77,0c1.57,1.73.63,4.52-.41,6.64a36.9,36.9,0,0,0-3.51,9c-.61,3.17-.27,6.67,1.68,9.24a7.73,7.73,0,0,0,4.5,2.83C324.46,303.72,324.25,303.52,324.07,303.3Z" style="fill:#263238"></path><path d="M198.81,232.76a1.82,1.82,0,0,0-.7,1.67c.29,1.15,2,1.18,2.8,2s.71,2.5,1.73,3.17a2.42,2.42,0,0,0,2.83-.62,5.2,5.2,0,0,0,1.53-5.17C205.84,230.08,201.22,230.59,198.81,232.76Z" style="fill:#fff;opacity:0.2"></path><path d="M211.06,273.21c4.64,4.37,10.67,6.9,16.86,4.29.53-.23,1.14-.82.78-1.27,0,0-3.82.47-4.26.44-8.67-.59-15.89-8.85-18.7-16.58-.45-1.24-.82-3.69-1.85-4.58-1.24-1.08-.93.71-.8,1.55a28.43,28.43,0,0,0,1.25,5.61,27,27,0,0,0,6.7,10.52Z" style="fill:#fff;opacity:0.2"></path><path d="M245.58,256.52a3,3,0,0,0-.67,1.55,3,3,0,0,0,1.27,2.43,10.59,10.59,0,0,0,2.54,1.27,29.77,29.77,0,0,1,8.9,5.73,1.43,1.43,0,0,0,.86.49.94.94,0,0,0,.85-.85,2.61,2.61,0,0,0-.26-1.28,31.32,31.32,0,0,0-5.91-9.39C251,254.16,247.67,253.79,245.58,256.52Z" style="fill:#fff;opacity:0.2"></path><path d="M295.93,234.1a2.39,2.39,0,0,0-.64,2.41,4.75,4.75,0,0,0,1.57,2.2,22.18,22.18,0,0,0,4.65,2.93,7.72,7.72,0,0,1,3.12,4.63c.09.39.23.87.62.91a.72.72,0,0,0,.4-.12,2.46,2.46,0,0,0,.85-1.81c.47-3.46.09-7-2.4-9.6a7.65,7.65,0,0,0-5.38-2.63A4.15,4.15,0,0,0,295.93,234.1Z" style="fill:#fff;opacity:0.2"></path><path d="M314.52,281.09a26.08,26.08,0,0,1-3.37,1.72,13.27,13.27,0,0,1-9.23.18,10.74,10.74,0,0,0,7.37,3.26,19.2,19.2,0,0,0,8.07-1.53c1.93-.76,5.09-2.6,4.21-5.17C320.5,276.44,316.06,280.21,314.52,281.09Z" style="fill:#fff;opacity:0.2"></path><path d="M176.15,268a1.11,1.11,0,0,0,.57.9,3.64,3.64,0,0,0,1,.36,9,9,0,0,1,1.93.8,12.45,12.45,0,0,0,1.6.88.43.43,0,0,0,.35,0,.41.41,0,0,0,.23-.28,1.85,1.85,0,0,0-.31-1.53,4.59,4.59,0,0,0-3.68-2.06,2,2,0,0,0-1.55.55A.59.59,0,0,0,176.15,268Z" style="fill:#fff;opacity:0.2"></path><path d="M298.75,237.77a19.79,19.79,0,0,0,2.5.83l2.14.61a1.24,1.24,0,0,0,.47.06.77.77,0,0,0,.6-.68c.39-2.88-4.42-6.06-6.84-4.39a1.83,1.83,0,0,0-.66,2.23,2.42,2.42,0,0,0,1,.94A7.16,7.16,0,0,0,298.75,237.77Z" style="fill:#fff;opacity:0.2"></path><path d="M202.83,235a3.12,3.12,0,0,1,.27,1.08c0,.55-.06,1.2.36,1.56a1,1,0,0,0,1.27,0,2.55,2.55,0,0,0,.76-1.13,4.26,4.26,0,0,0,.28-2.93,2.07,2.07,0,0,0-2.55-1.39C201.59,232.71,202.33,233.91,202.83,235Z" style="fill:#fff;opacity:0.2"></path><path d="M247.39,257.89a1.78,1.78,0,0,0,.7.63l5.54,3.31a.53.53,0,0,0,.35.12c.22,0,.33-.26.39-.47a4,4,0,0,0-1.72-4.05c-1-.85-2.33-1.71-3.7-1.39C248.1,256.24,246.86,256.81,247.39,257.89Z" style="fill:#fff;opacity:0.2"></path><circle cx="331.95" cy="231.07" r="9.69" transform="translate(50.69 521.72) rotate(-80.78)" style="fill:#263238"></circle><circle cx="331.95" cy="231.07" r="9.69" transform="translate(50.69 521.72) rotate(-80.78)" style="fill:#fff;opacity:0.4"></circle><path d="M332,221.38a9.69,9.69,0,1,0,9.69,9.69,9.32,9.32,0,0,0-.17-1.77c.56,2.86-4,7-9.52,4.15S327.44,223.18,332,221.38Z" style="fill:#263238"></path><path d="M332,221.38a9.69,9.69,0,1,0,9.69,9.69,9.32,9.32,0,0,0-.17-1.77c.56,2.86-4,7-9.52,4.15S327.44,223.18,332,221.38Z" style="fill:#fff;opacity:0.2"></path><path d="M340.16,236.21c-.19.24-3.56,4.32-10,2.19-6.66-2.2-7.09-11.35-3.48-15.44a9.69,9.69,0,1,0,13.51,13.25Z" style="fill:#263238"></path><path d="M333.39,228.06a13.82,13.82,0,0,1,1.33,1.43,9.59,9.59,0,0,1,1.45,5.26c.07,1.18.89,2.06,2,1.27a4,4,0,0,0,1.38-2.37,9.58,9.58,0,0,0-.46-6.55,7.55,7.55,0,0,0-3.81-3.64,2.66,2.66,0,0,0-2.94.47c-1,1.16-.41,2.56.48,3.57C333,227.69,333.21,227.88,333.39,228.06Z" style="fill:#fff;opacity:0.30000000000000004"></path><path d="M334.11,238.32a.91.91,0,0,0,.45.71,1.05,1.05,0,0,0,.31.12,1.65,1.65,0,0,0,2-1.11,1,1,0,0,0-.95-1.32,1.87,1.87,0,0,0-1.41.62,1.33,1.33,0,0,0-.36.88Z" style="fill:#fff;opacity:0.30000000000000004"></path><path d="M263.61,332.76a6.37,6.37,0,1,1-6.37-6.37A6.38,6.38,0,0,1,263.61,332.76Z" style="fill:#263238"></path><path d="M263.61,332.76a6.37,6.37,0,1,1-6.37-6.37A6.38,6.38,0,0,1,263.61,332.76Z" style="fill:#fff;opacity:0.6000000000000001"></path><path d="M257.24,326.39a6.38,6.38,0,1,0,6.37,6.37,6.45,6.45,0,0,0-.11-1.17c.37,1.89-2.66,4.61-6.26,2.74S254.28,327.57,257.24,326.39Z" style="fill:#263238"></path><path d="M257.24,326.39a6.38,6.38,0,1,0,6.37,6.37,6.45,6.45,0,0,0-.11-1.17c.37,1.89-2.66,4.61-6.26,2.74S254.28,327.57,257.24,326.39Z" style="fill:#fff;opacity:0.4"></path><path d="M262.64,336.14c-.13.16-2.34,2.85-6.6,1.44s-4.66-7.46-2.29-10.15a6.37,6.37,0,1,0,8.89,8.71Z" style="fill:#263238;opacity:0.5"></path><path d="M258.19,330.78a8.57,8.57,0,0,1,.87.94,6.3,6.3,0,0,1,1,3.47c0,.77.58,1.35,1.34.83a2.7,2.7,0,0,0,.91-1.56,6.27,6.27,0,0,0-.31-4.31,4.93,4.93,0,0,0-2.5-2.39,1.75,1.75,0,0,0-1.94.31c-.67.76-.26,1.68.32,2.34C258,330.54,258.07,330.66,258.19,330.78Z" style="fill:#fff;opacity:0.30000000000000004"></path><path d="M258.67,337.53a.6.6,0,0,0,.29.47.7.7,0,0,0,.2.08,1.09,1.09,0,0,0,1.29-.73.67.67,0,0,0-.62-.87,1.19,1.19,0,0,0-.93.41.89.89,0,0,0-.24.58A.13.13,0,0,0,258.67,337.53Z" style="fill:#fff;opacity:0.30000000000000004"></path><path d="M167.63,249.12a7.15,7.15,0,1,1-10.11.53A7.15,7.15,0,0,1,167.63,249.12Z" style="fill:#263238"></path><path d="M167.63,249.12a7.15,7.15,0,1,1-10.11.53A7.15,7.15,0,0,1,167.63,249.12Z" style="fill:#fff;opacity:0.4"></path><path d="M157.52,249.65a7.15,7.15,0,1,0,10.11-.53,6.57,6.57,0,0,0-1.06-.78c1.86,1.11,1.84,5.67-2.43,7.28S156.28,253,157.52,249.65Z" style="fill:#263238"></path><path d="M157.52,249.65a7.15,7.15,0,1,0,10.11-.53,6.57,6.57,0,0,0-1.06-.78c1.86,1.11,1.84,5.67-2.43,7.28S156.28,253,157.52,249.65Z" style="fill:#fff;opacity:0.2"></path><path d="M169.72,252.47c0,.23.61,4.09-3.76,6.59s-9.73-1.72-10.19-5.72a7.15,7.15,0,1,0,13.95-.87Z" style="fill:#263238"></path><path d="M161.9,252.15a9.89,9.89,0,0,1,1.44,0,7.12,7.12,0,0,1,3.61,1.8c.68.55,1.56.53,1.7-.49a3,3,0,0,0-.62-1.93,7.07,7.07,0,0,0-3.82-3,5.64,5.64,0,0,0-3.88.29,2,2,0,0,0-1.19,1.85c.13,1.13,1.2,1.49,2.19,1.5Z" style="fill:#fff;opacity:0.30000000000000004"></path><path d="M167.89,256.83a.67.67,0,0,0,.61.11.53.53,0,0,0,.21-.11,1.23,1.23,0,0,0,.37-1.63.77.77,0,0,0-1.2-.13,1.38,1.38,0,0,0-.35,1.08,1,1,0,0,0,.3.64Z" style="fill:#fff;opacity:0.30000000000000004"></path><path d="M163.57,227.74a3.65,3.65,0,1,1-5.17.26A3.66,3.66,0,0,1,163.57,227.74Z" style="fill:#263238"></path><path d="M163.57,227.74a3.65,3.65,0,1,1-5.17.26A3.66,3.66,0,0,1,163.57,227.74Z" style="fill:#fff;opacity:0.4"></path><path d="M158.4,228a3.66,3.66,0,1,0,5.17-.26,3.27,3.27,0,0,0-.54-.4c.94.56.93,2.89-1.24,3.71A2.54,2.54,0,0,1,158.4,228Z" style="fill:#263238"></path><path d="M158.4,228a3.66,3.66,0,1,0,5.17-.26,3.27,3.27,0,0,0-.54-.4c.94.56.93,2.89-1.24,3.71A2.54,2.54,0,0,1,158.4,228Z" style="fill:#fff;opacity:0.2"></path><path d="M164.63,229.45a3.36,3.36,0,0,1-1.92,3.36c-2.3,1.31-5-.88-5.2-2.92a3.65,3.65,0,1,0,7.12-.44Z" style="fill:#263238"></path><path d="M160.64,229.29a3.66,3.66,0,0,1,.74,0,3.58,3.58,0,0,1,1.84.92c.34.28.8.27.86-.25a1.52,1.52,0,0,0-.31-1,3.59,3.59,0,0,0-2-1.52,2.82,2.82,0,0,0-2,.14,1,1,0,0,0-.61.95c.07.57.61.76,1.12.76Z" style="fill:#fff;opacity:0.30000000000000004"></path><path d="M163.7,231.67a.32.32,0,0,0,.31.06.3.3,0,0,0,.11-.06.62.62,0,0,0,.18-.83.39.39,0,0,0-.61-.07.76.76,0,0,0-.18.56.49.49,0,0,0,.16.32Z" style="fill:#fff;opacity:0.30000000000000004"></path><path d="M374.35,270.31a3.65,3.65,0,1,1-4.49-2.57A3.65,3.65,0,0,1,374.35,270.31Z" style="fill:#263238"></path><path d="M374.35,270.31a3.65,3.65,0,1,1-4.49-2.57A3.65,3.65,0,0,1,374.35,270.31Z" style="fill:#fff;opacity:0.4"></path><path d="M369.86,267.74a3.65,3.65,0,1,0,4.49,2.57,3.41,3.41,0,0,0-.24-.63c.49,1-.78,2.94-3.05,2.45A2.54,2.54,0,0,1,369.86,267.74Z" style="fill:#263238"></path><path d="M369.86,267.74a3.65,3.65,0,1,0,4.49,2.57,3.41,3.41,0,0,0-.24-.63c.49,1-.78,2.94-3.05,2.45A2.54,2.54,0,0,1,369.86,267.74Z" style="fill:#fff;opacity:0.2"></path><path d="M374.32,272.33a3.37,3.37,0,0,1-3.43,1.78c-2.65-.14-3.71-3.42-2.8-5.27a3.65,3.65,0,1,0,6.23,3.49Z" style="fill:#263238"></path><path d="M371.05,270a6,6,0,0,1,.63.39,3.75,3.75,0,0,1,1.05,1.77c.14.42.52.66.86.26a1.52,1.52,0,0,0,.27-1,3.61,3.61,0,0,0-.82-2.34,2.87,2.87,0,0,0-1.74-.95,1,1,0,0,0-1,.47c-.25.52.11,1,.53,1.25Z" style="fill:#fff;opacity:0.30000000000000004"></path><path d="M372.33,273.69a.36.36,0,0,0,.23.22h.13a.62.62,0,0,0,.6-.6.39.39,0,0,0-.48-.39.72.72,0,0,0-.45.37.5.5,0,0,0,0,.36A0,0,0,0,0,372.33,273.69Z" style="fill:#fff;opacity:0.30000000000000004"></path><path d="M273.19,326c-.08-5-2.67-7.6-9.85-13.24-7.92-6.23-7.91-11.23-13.34-11.23s-5.42,5-13.34,11.23c-7.18,5.64-9.77,8.22-9.85,13.24-.1,3.5,2.16,7,6.79,9.7,9.06,5.23,23.74,5.23,32.8,0C271,333,273.29,329.46,273.19,326Z" style="fill:#263238"></path><path d="M273.19,326c-.08-5-2.67-7.6-9.85-13.24-7.92-6.23-7.91-11.23-13.34-11.23s-5.42,5-13.34,11.23c-7.18,5.64-9.77,8.22-9.85,13.24-.1,3.5,2.16,7,6.79,9.7,9.06,5.23,23.74,5.23,32.8,0C271,333,273.29,329.46,273.19,326Z" style="fill:#fff;opacity:0.35000000000000003"></path><path d="M263,335.12a27.09,27.09,0,0,1-22.34-3.29,11.15,11.15,0,0,1-4.47-5.1c-2.25-6.11,3.76-10.83,6.45-15.55,1.19-2.08,2-4.39,3.19-6.44a10.41,10.41,0,0,1,2.84-3.14c-4.19.77-4.81,5.43-12,11.12s-9.77,8.22-9.85,13.24c-.1,3.5,2.16,7,6.79,9.7,9.06,5.23,23.74,5.23,32.8,0a14.46,14.46,0,0,0,5.76-5.53A21.84,21.84,0,0,1,263,335.12Z" style="fill:#263238;opacity:0.35000000000000003"></path><path d="M250.52,303.76a2.85,2.85,0,0,0-.83,1.05,6.1,6.1,0,0,0-.73,3.59,4.34,4.34,0,0,0,1.84,3.11,5.66,5.66,0,0,0,2.52.8c1.17.14,2.57,0,3.2-1a2.47,2.47,0,0,0,.1-2.19,7.41,7.41,0,0,0-1.24-1.9l-2.16-2.66C252.6,303.77,251.47,303.08,250.52,303.76Z" style="fill:#fff;opacity:0.30000000000000004"></path><path d="M256.81,315.27a.77.77,0,0,0,0,.15c-.56,4.24,3.79,5.54,6,8.22a7,7,0,0,1,1.81,4.44,8.14,8.14,0,0,1-1.83,4.65c-1.1,1.51.14,1.87,1.38,1.4a9.8,9.8,0,0,0,3.75-2.51,9.32,9.32,0,0,0,2.1-9c-.68-2.13-2.76-4.11-4.3-5.63S257.62,310,256.81,315.27Z" style="fill:#fff;opacity:0.30000000000000004"></path><path d="M181.54,355.77c-8.58-7.5-11.89-14.83-14-25.69-1.13-5.68-6.94-8.77-6.33-14.73.37-3.56,2.16-6.81,3.23-10.23a26.33,26.33,0,0,0,1-10.8,11.18,11.18,0,0,0-1.29-4.43c-2.82-4.77-8.43-2.77-13.07-2.65-3.9.1-8.94-.24-11.14-4a8.35,8.35,0,0,1,.71-9.08c1.93-2.41,5.36-3,8.44-2.85,17.2.92,25.3,17.23,26,32.92.23,5.11-.16,10.44,1.94,15.1,4.52,10,16.86,2.35,20.68,12.53,1,2.7,1.26,5.62,2,8.41a21,21,0,0,0,9.73,13,6.42,6.42,0,0,0,6.17.43,6.76,6.76,0,0,0,2.7-3.06c2.2-4.58.89-10,.11-15s-.62-11,3.39-14.11c4.43-3.45,9.47-2,12.89,2.07,3.81,4.54,1.8,7.76-.14,13.07a39.16,39.16,0,0,0-2.09,8.75c-.44,3.63,0,8,3.17,9.85,3.39,2,7.69-.26,10.47-3,1.63-1.61,3.31-6.65,5.87-7.14,4.31-.83,6.21,10.4,9.12,13.18,2.72,2.59,6.95,4,10.31,2.3,2.35-1.16,3.84-3.53,5.13-5.82a143.14,143.14,0,0,0,10.77-23.85c.77-2.22,1.55-4.58,3.32-6.13s4.86-1.85,6.27,0c.42.57.65,1.26,1.1,1.8,1.28,1.53,3.87,1.19,5.36-.14s2.19-3.31,2.95-5.16a50.92,50.92,0,0,1,14.61-19.93c1.54-1.29,4.7-1.87,4.83.13a3.06,3.06,0,0,1-.8,1.85,24.58,24.58,0,0,0-4.43,11.43c-.11,1-.08,2.12.71,2.67,1,.68,2.26,0,3.19-.73a35.8,35.8,0,0,0,12.36-18.62c1.81-6.63,1.94-14.29,6.81-19.13,5.35-5.31,15.55-4.19,19.61,2.15,1.51,2.35,2.18,5.46.92,8-1.63,3.23-5.63,4.24-9,5.53-7.93,3-14.33,9.34-18.7,16.63s-6.86,15.54-8.66,23.85a31.63,31.63,0,0,1-5.09,12.38C310.24,364.09,289.7,378,250,378S186.71,360.29,181.54,355.77Z" style="fill:#263238"></path><path d="M181.54,355.77c-8.58-7.5-11.89-14.83-14-25.69-1.13-5.68-6.94-8.77-6.33-14.73.37-3.56,2.16-6.81,3.23-10.23a26.33,26.33,0,0,0,1-10.8,11.18,11.18,0,0,0-1.29-4.43c-2.82-4.77-8.43-2.77-13.07-2.65-3.9.1-8.94-.24-11.14-4a8.35,8.35,0,0,1,.71-9.08c1.93-2.41,5.36-3,8.44-2.85,17.2.92,25.3,17.23,26,32.92.23,5.11-.16,10.44,1.94,15.1,4.52,10,16.86,2.35,20.68,12.53,1,2.7,1.26,5.62,2,8.41a21,21,0,0,0,9.73,13,6.42,6.42,0,0,0,6.17.43,6.76,6.76,0,0,0,2.7-3.06c2.2-4.58.89-10,.11-15s-.62-11,3.39-14.11c4.43-3.45,9.47-2,12.89,2.07,3.81,4.54,1.8,7.76-.14,13.07a39.16,39.16,0,0,0-2.09,8.75c-.44,3.63,0,8,3.17,9.85,3.39,2,7.69-.26,10.47-3,1.63-1.61,3.31-6.65,5.87-7.14,4.31-.83,6.21,10.4,9.12,13.18,2.72,2.59,6.95,4,10.31,2.3,2.35-1.16,3.84-3.53,5.13-5.82a143.14,143.14,0,0,0,10.77-23.85c.77-2.22,1.55-4.58,3.32-6.13s4.86-1.85,6.27,0c.42.57.65,1.26,1.1,1.8,1.28,1.53,3.87,1.19,5.36-.14s2.19-3.31,2.95-5.16a50.92,50.92,0,0,1,14.61-19.93c1.54-1.29,4.7-1.87,4.83.13a3.06,3.06,0,0,1-.8,1.85,24.58,24.58,0,0,0-4.43,11.43c-.11,1-.08,2.12.71,2.67,1,.68,2.26,0,3.19-.73a35.8,35.8,0,0,0,12.36-18.62c1.81-6.63,1.94-14.29,6.81-19.13,5.35-5.31,15.55-4.19,19.61,2.15,1.51,2.35,2.18,5.46.92,8-1.63,3.23-5.63,4.24-9,5.53-7.93,3-14.33,9.34-18.7,16.63s-6.86,15.54-8.66,23.85a31.63,31.63,0,0,1-5.09,12.38C310.24,364.09,289.7,378,250,378S186.71,360.29,181.54,355.77Z" style="fill:#fff;opacity:0.4"></path><path d="M249.84,375.59c-20.4-1.18-43.32-8.29-59.91-20.23a40.2,40.2,0,0,1-14.66-20.11c-1.58-4.71-.68-8.05-4.07-11.7-2.11-2.26-5.71-3.75-7.34-6.46-1.37-2.27-1.23-5.41-.91-8a24.67,24.67,0,0,0-1.79,6.31c-.61,6,5.2,9,6.33,14.73,2.16,10.86,5.47,18.19,14,25.69C186.71,360.29,210.3,378,250,378c15.23,0,27.64-2.05,37.85-5.51C275.27,374.82,262.58,376.33,249.84,375.59Zm-15-16.6c2.76,1.14,6.07.06,8.23-2a14.73,14.73,0,0,0,3.37-5.28,5.15,5.15,0,0,1-.42.48c-2.78,2.76-7.08,5-10.47,3-3.17-1.83-3.61-6.22-3.17-9.85.07-.58.16-1.16.26-1.73a18.8,18.8,0,0,0-2.19,6.83C230.22,353.87,231.73,357.68,234.89,359Zm-35.46-5.56a19.42,19.42,0,0,0,12.07,4,13.38,13.38,0,0,0,5.39-.92c4.27-1.83,6.49-6.46,8.35-10.73a19.8,19.8,0,0,0,1.78-5.52,6.66,6.66,0,0,0-1.55-5.43,27.11,27.11,0,0,0-3.53-2.41,8.11,8.11,0,0,1-3.13-6.66,21.09,21.09,0,0,0-.43,9.82c.78,5,2.09,10.41-.11,15a6.76,6.76,0,0,1-2.7,3.06,6.42,6.42,0,0,1-6.17-.43,21,21,0,0,1-9.73-13c-.71-2.79-1-5.71-2-8.41a9.49,9.49,0,0,0-1.44-2.61,10.47,10.47,0,0,1,.06,3.53c-.49,3.17-2,6.16-2.17,9.36A13.92,13.92,0,0,0,199.43,353.43Zm-35.29-63.54a11.18,11.18,0,0,1,1.29,4.43,27.46,27.46,0,0,1,.16,3,9.23,9.23,0,0,0,1.44-4.89c-.09-3.55-2.89-6.52-6.06-8.12s-6.74-2.18-10.13-3.22a10.68,10.68,0,0,1-4.38-2.27,4.43,4.43,0,0,1-1.32-4.53c.6-1.65,2.38-2.56,4.09-3l-.15,0c-3.08-.16-6.51.44-8.44,2.85a8.35,8.35,0,0,0-.71,9.08c2.2,3.78,7.24,4.12,11.14,4C155.71,287.12,161.32,285.12,164.14,289.89Zm199-8.8c-2.9-4.53-8.92-6.38-14.08-5.14a22.19,22.19,0,0,1,3.15.74,12.48,12.48,0,0,1,5.66,3.12c4.92,5.27-1.72,9.82-5.87,12.31-6.77,4.06-12.94,10.07-14.78,17.71,4.33-6.7,10.41-12.41,17.84-15.26,3.37-1.29,7.37-2.3,9-5.53C365.34,286.55,364.67,283.44,363.16,281.09Zm-59.84,45.34c-1.45,1.29-3.93,1.64-5.24.25,1,2.35,2.84,4.92,4.68,5.43,2.66.74,4-2.09,4.78-4.14q2.47-6.36,4.82-12.76c1.47-4,3.13-8.31,5.85-11.48a51,51,0,0,0-11.94,17.54C305.51,323.12,304.82,325.1,303.32,326.43Zm-16.05,4.44a143.14,143.14,0,0,1-10.77,23.85c-1.29,2.29-2.78,4.66-5.13,5.82-3.36,1.67-7.59.29-10.31-2.3-1.71-1.64-3.08-6.2-4.79-9.51,1.28,5.18,1,11.07,4.76,14.72a10.18,10.18,0,0,0,9.74,2.17c6.67-1.92,10.53-10.19,13-16.13,3-7.3,4.61-15.1,7.32-22.51a8.6,8.6,0,0,1,1.68-3.09c.12-.12.25-.23.38-.34a5.38,5.38,0,0,0-2.54,1.19C288.82,326.29,288,328.65,287.27,330.87Z" style="fill:#263238;opacity:0.30000000000000004"></path><path d="M142.68,274.66c-1,.87-1.75,2.42-1,3.57.82,1.35,2.8,1.17,4.37.95a40.64,40.64,0,0,1,12.26.13c.79.14,3.81,1.05,4.41.32,1-1.17-2.8-3.26-3.5-3.67C154.5,273.26,147.45,270.67,142.68,274.66Z" style="fill:#fff;opacity:0.30000000000000004"></path><path d="M163.33,311.07c-.29.87-.56,1.74-.8,2.62a7.87,7.87,0,0,0,.66,5.75c.47.88,1.64,2.39,2.81,1.94s1.44-2.27,1.43-3.34c0-1.45-.14-2.9-.15-4.33,0-1.64.12-3.28.14-4.91a7.42,7.42,0,0,0-.86-4.25c-.11-.16-.26-.33-.45-.3s-.31.24-.38.43C164.91,306.81,164.06,308.92,163.33,311.07Z" style="fill:#fff;opacity:0.30000000000000004"></path><path d="M187.43,327.45a3.21,3.21,0,0,0-2.33,1.14c-.94,1.27-.36,3.16.77,4.27a17.43,17.43,0,0,0,4,2.43,15.93,15.93,0,0,1,4.76,4c.59.74,1.69,3.56,2.87,3.21a.51.51,0,0,0,.29-.19.69.69,0,0,0,.08-.4l0-2.22c0-3.35-.6-6.48-2.87-9.07A9.12,9.12,0,0,0,187.43,327.45Z" style="fill:#fff;opacity:0.30000000000000004"></path><path d="M223.35,325.81a5.11,5.11,0,0,0,1.75,3.24,12,12,0,0,1,2.44,2.84c.64,1.27.85,3,2.18,3.52,1.18.44,2.44-.48,3.19-1.5,1.6-2.18,2.58-5.64,1.29-8.18-.89-1.74-3.68-4-5.71-4.06C226.31,321.6,223.28,323.41,223.35,325.81Z" style="fill:#fff;opacity:0.30000000000000004"></path><path d="M251.14,347.9a2.47,2.47,0,0,0-.27,2.12,8,8,0,0,0,1,2,49,49,0,0,1,4.07,8.37A6.88,6.88,0,0,0,257,362.5a4.31,4.31,0,0,0,.86-2.39,15.69,15.69,0,0,0-1.54-8.68C255.65,350.08,253,345.4,251.14,347.9Z" style="fill:#fff;opacity:0.30000000000000004"></path><path d="M291.31,327.07a2.5,2.5,0,0,0,1,1.84,17.79,17.79,0,0,0,1.78,1.19,8.33,8.33,0,0,1,2.82,3.19,4,4,0,0,0,.79,1.25,1,1,0,0,0,1.34.09,1.45,1.45,0,0,0,.3-1,10.91,10.91,0,0,0-.31-3.7,7.78,7.78,0,0,0-3.47-4.58C294,324.56,291.34,324.9,291.31,327.07Z" style="fill:#fff;opacity:0.30000000000000004"></path><path d="M345.68,280.22a13.26,13.26,0,0,0-4.4,9.28,1.44,1.44,0,0,0,.19.92,1.15,1.15,0,0,0,.65.39c1.82.52,3.58-.78,5.18-1.77a19.18,19.18,0,0,1,7.82-2.71c1.89-.21,4.06-.27,5.27-1.74,2.76-3.38-1.87-6.58-4.67-7.39C352.36,276.21,348.2,278,345.68,280.22Z" style="fill:#fff;opacity:0.30000000000000004"></path><path d="M350.14,280.9a2.45,2.45,0,0,0,1.44,2.28,10,10,0,0,0,4.64,1c1.88.07,3.71-1.53,2.74-3.42a4.78,4.78,0,0,0-4.22-2.27C353,278.4,350.48,278.81,350.14,280.9Z" style="fill:#fff;opacity:0.30000000000000004"></path><path d="M293,327.37a.9.9,0,0,0,.41.36l2.24,1.3a1.16,1.16,0,0,0,1,.22,1,1,0,0,0,.37-1.11,3,3,0,0,0-2.15-2.23C294.09,325.67,292.39,326.14,293,327.37Z" style="fill:#fff;opacity:0.30000000000000004"></path><path d="M227.3,324.47a2.12,2.12,0,0,0,0,1.84,7.73,7.73,0,0,0,1,1.62,19.93,19.93,0,0,1,1.44,2.39,2.61,2.61,0,0,0,1,1.29,1.92,1.92,0,0,0,2.18-.71,4.5,4.5,0,0,0,.33-5.13,7.11,7.11,0,0,0-1.65-1.68C230.41,323.22,228.17,323,227.3,324.47Z" style="fill:#fff;opacity:0.30000000000000004"></path><path d="M144.11,274.78A3.5,3.5,0,0,0,143,277a.9.9,0,0,0,.11.63.85.85,0,0,0,.65.26c1.37.05,2.48-1,3.77-1.5.65-.23,1.36-.3,2-.49.51-.14,1.08-.45,1.1-1a.93.93,0,0,0-.39-.72,2.12,2.12,0,0,0-.77-.33C147.86,273.4,145.43,273.57,144.11,274.78Z" style="fill:#fff;opacity:0.30000000000000004"></path><path d="M277.36,265.64a27.36,27.36,0,0,1-54.72,0c0-15.11,12.25-32.12,27.36-32.12S277.36,250.53,277.36,265.64Z" style="fill:#263238"></path><path d="M277.36,265.64a27.36,27.36,0,0,1-54.72,0c0-15.11,12.25-32.12,27.36-32.12S277.36,250.53,277.36,265.64Z" style="fill:#fff;opacity:0.30000000000000004"></path><path d="M250,233.52c-15.11,0-27.36,17-27.36,32.12a27.36,27.36,0,0,0,54.72,0,26.68,26.68,0,0,0-.47-5c1.59,8.1-11.41,19.75-26.89,11.73S237.28,238.6,250,233.52Z" style="fill:#263238;opacity:0.30000000000000004"></path><path d="M252.14,292.91c.4,0,.79-.07,1.18-.12l.5-.06c.44-.06.87-.13,1.31-.22l.29-.05c.52-.1,1.05-.23,1.57-.36l.32-.09,1.23-.37.41-.14q.6-.21,1.2-.45l.29-.12a26,26,0,0,0,2.91-1.41l.25-.14c.4-.23.79-.47,1.18-.72l.21-.13a26.49,26.49,0,0,0,2.63-2l.05,0q.6-.51,1.17-1l.11-.11a26.72,26.72,0,0,0,3.27-3.77l0-.06c.32-.45.63-.91.92-1.38h0c-.55.69-10.06,12.2-28.32,6.18-18.8-6.21-20.12-35.24-9.94-46.82-7.41,6.3-12.29,16.59-12.29,26.13a27.37,27.37,0,0,0,24.54,27.22c.94.09,1.88.14,2.82.14.55,0,1.1,0,1.65-.05Z" style="fill:#263238;opacity:0.6000000000000001"></path><path d="M254.08,254.19a37,37,0,0,1,3.76,4.06c3.09,4.19,3.8,9.65,4.09,14.86.2,3.32,2.5,5.79,5.75,3.56,2.17-1.49,3.23-4.13,3.9-6.68,1.59-6.11,1.48-12.83-1.3-18.5-2.07-4.23-6.23-8.63-10.75-10.28-2.76-1-6.24-1-8.32,1.34-2.86,3.26-1.14,7.21,1.38,10.07C253.07,253.16,253.57,253.68,254.08,254.19Z" style="fill:#fff;opacity:0.30000000000000004"></path><path d="M256.12,283.17a2.67,2.67,0,0,0,1.25,2,2.82,2.82,0,0,0,.88.32c2.29.47,5-.74,5.54-3.12a2.9,2.9,0,0,0-2.67-3.74,5.29,5.29,0,0,0-4,1.76,3.76,3.76,0,0,0-1,2.48A2.46,2.46,0,0,0,256.12,283.17Z" style="fill:#fff;opacity:0.30000000000000004"></path></g><g id="freepik--Drop--inject-13"><g id="freepik--water-drop--inject-13"><g id="freepik--drop--inject-13"><path d="M250,96.14c-25.61,29.82-45.89,59.18-45.89,83.57s20.54,44.16,45.89,44.16,45.89-19.77,45.89-44.16S275.61,126,250,96.14Z" style="fill:#263238"></path><path d="M250,96.14c-25.61,29.82-45.89,59.18-45.89,83.57s20.54,44.16,45.89,44.16,45.89-19.77,45.89-44.16S275.61,126,250,96.14Z" style="fill:#fff;opacity:0.2"></path><path d="M247,118c-4.56,5.43-6.12,12.91-6.46,20a46.33,46.33,0,0,0,2.29,18.13c3.14,8.58,10.6,16.14,20.24,16.28a14,14,0,0,0,11.68-5.9,19.25,19.25,0,0,0,2.76-9.64c.71-11.75-3.79-23.35-10.43-33.08-4.24-6.22-12.35-14-19.25-6.76C247.57,117.42,247.3,117.72,247,118Z" style="fill:#fff;opacity:0.2"></path><path d="M295.89,179.71a58.13,58.13,0,0,0-3.34-18.48c2.44,8.66-8.17,39.38-39,30.69S217.18,143.84,237.71,111c-19.51,24.61-33.6,48.39-33.6,68.72,0,24.39,20.54,44.16,45.89,44.16S295.89,204.1,295.89,179.71Z" style="fill:#263238"></path><path d="M288.57,203.65c-7.16,7.46-18.16,13.11-34.86,10.76-40.34-5.69-48.41-48.71-38.73-70.07-6.8,12.52-10.87,24.44-10.87,35.37,0,24.39,20.54,44.16,45.89,44.16A46.31,46.31,0,0,0,288.57,203.65Z" style="opacity:0.1"></path><path d="M257.79,134c.91,3.67,2.91,7,6.9,6.44a5.83,5.83,0,0,0,4.93-5.24,10.12,10.12,0,0,0-1.93-6.72,14.14,14.14,0,0,0-5.15-4.87,3.89,3.89,0,0,0-4.11.32,4.93,4.93,0,0,0-1.52,3.75A27.54,27.54,0,0,0,257.79,134Z" style="fill:#fff;opacity:0.30000000000000004"></path><path d="M288.41,173.39c.67,11-.31,22.94-7.64,31.1-1.43,1.59-3.27,3.07-5.41,3.08-2.79,0-5-2.58-5.66-5.3s-.15-5.55.14-8.32a52.56,52.56,0,0,0-1.77-20c-1.6-5.54-4.14-10.87-4.69-16.61s1.47-12.29,6.65-14.82c5.46-2.65,10.71,2.78,12.92,7.2C286.49,156.82,287.94,165.55,288.41,173.39Z" style="fill:#fff;opacity:0.30000000000000004"></path></g></g></g></svg>